<?xml version="1.0" standalone="no"?>
<!DOCTYPE svg PUBLIC "-//W3C//DTD SVG 20010904//EN"
 "http://www.w3.org/TR/2001/REC-SVG-20010904/DTD/svg10.dtd">
<svg version="1.0" xmlns="http://www.w3.org/2000/svg"
 width="920.000000pt" height="920.000000pt" viewBox="0 0 920.000000 920.000000"
 preserveAspectRatio="xMidYMid meet">

<g transform="translate(0.000000,920.000000) scale(0.100000,-0.100000)"
fill="#000000" stroke="none">
<path d="M5595 7455 c-559 -123 -1004 -651 -1005 -1194 l0 -114 113 5 c90 4
130 11 206 37 254 85 461 247 618 483 76 114 144 264 179 392 28 104 51 313
40 369 -7 36 -8 37 -49 36 -23 0 -69 -7 -102 -14z"/>
<path d="M5550 6083 c-151 -16 -299 -58 -550 -156 -193 -75 -301 -107 -359
-107 -62 0 -151 24 -289 77 -374 146 -514 179 -707 169 -337 -17 -647 -158
-895 -406 -246 -245 -384 -534 -457 -955 -27 -157 -24 -562 6 -755 85 -558
290 -1087 586 -1516 260 -378 438 -560 636 -653 192 -90 360 -76 679 59 371
157 637 159 991 9 237 -100 354 -127 500 -116 274 21 480 183 781 612 154 220
248 385 340 595 58 131 124 308 117 314 -2 1 -40 22 -84 45 -426 227 -674 635
-678 1116 -1 77 5 174 12 215 30 171 103 350 204 500 64 95 208 243 306 317
42 32 80 60 85 64 24 20 -209 261 -329 341 -140 92 -323 169 -480 202 -126 26
-316 40 -415 29z"/>
</g>
</svg>
