<svg width="43" height="43" viewBox="0 0 43 43" fill="none" xmlns="http://www.w3.org/2000/svg">
<path d="M40.7569 8.79688H24.9805L26.5383 12.2244V33.0552L26.6524 33.017C26.8969 32.9349 27.1523 32.8933 27.4111 32.8933C27.975 32.8933 28.5226 33.094 28.9531 33.4586L29.009 33.506L29.0649 33.4586C29.4953 33.094 30.043 32.8933 30.6069 32.8933C31.9235 32.8933 32.9945 33.9644 32.9945 35.2809C32.9945 35.5199 32.9569 35.7606 32.8828 35.9964L32.8475 36.1088H33.9165C34.2602 36.1088 34.5592 36.3295 34.6606 36.6579L34.9664 37.649H40.7568C41.4736 37.649 42.0547 37.068 42.0547 36.3511V10.0947C42.0548 9.37789 41.4737 8.79688 40.7569 8.79688Z" fill="#60B7FF"/>
<path d="M25.9924 12.2849L26.6235 12.2009L24.1023 6.6543L23.1868 6.57031H3.52404L2.52117 6.6543L0 12.2009L0.654332 12.2849H25.9924Z" fill="#FFF0AD"/>
<path d="M24.1007 6.65625H20.2344L22.7555 12.2028H26.6219L24.1007 6.65625Z" fill="#FFE177"/>
<path d="M40.7576 8.79688H37.1328C37.8495 8.79688 38.4306 9.37789 38.4306 10.0947V36.3511C38.4306 37.0679 37.8495 37.649 37.1328 37.649H40.7576C41.4743 37.649 42.0554 37.068 42.0554 36.3511V10.0947C42.0554 9.37789 41.4744 8.79688 40.7576 8.79688Z" fill="#26A6FE"/>
<path d="M24.1046 6.65586V2.91497C24.1046 1.30505 22.7995 0 21.1896 0H5.43841C3.82849 0 2.52344 1.30505 2.52344 2.91497V6.65586H24.1046Z" fill="#FFE177"/>
<path d="M20.2392 2.91497V6.65586H24.1056V2.91497C24.1056 1.30505 22.8005 0 21.1906 0H17.5469C19.1568 0 20.2392 1.30505 20.2392 2.91497Z" fill="#FFD15B"/>
<path d="M26.5391 26.4375H42.0554V29.9726H26.5391V26.4375Z" fill="#BBEC6C"/>
<path d="M38.4297 26.4375H42.0544V29.9726H38.4297V26.4375Z" fill="#A2E62E"/>
<path d="M36.7891 19.323C36.4355 19.1729 36.1689 18.8772 36.0252 18.521C35.7355 17.8033 35.0327 17.2969 34.2113 17.2969C33.3899 17.2969 32.687 17.8033 32.3974 18.521C32.2536 18.8772 31.987 19.1729 31.6335 19.323C30.9054 19.6321 30.4031 20.3696 30.4437 21.2194C30.4913 22.2178 31.3045 23.0302 32.3028 23.0772C32.7122 23.0964 33.0955 22.9897 33.4173 22.7924C33.9077 22.4917 34.5149 22.4917 35.0053 22.7924C35.3271 22.9897 35.7104 23.0964 36.1198 23.0772C37.1182 23.0302 37.9313 22.2178 37.9789 21.2194C38.0195 20.3695 37.5173 19.632 36.7891 19.323Z" fill="white"/>
<path d="M36.7872 19.3308C36.4336 19.1808 36.1671 18.885 36.0233 18.5288C35.7336 17.8111 35.0307 17.3047 34.2094 17.3047C33.6735 17.3047 33.1891 17.5211 32.8359 17.8701C33.0241 18.0561 33.1757 18.2792 33.2764 18.5287C33.4202 18.8849 33.6868 19.1807 34.0403 19.3308C34.7684 19.6398 35.2707 20.3773 35.2301 21.2272C35.2038 21.779 34.9428 22.2734 34.5466 22.6138C34.705 22.6502 34.8592 22.7119 35.0034 22.8001C35.3252 22.9974 35.7084 23.1042 36.1179 23.0849C37.1163 23.038 37.9294 22.2255 37.977 21.2272C38.0177 20.3773 37.5154 19.6398 36.7872 19.3308Z" fill="#F2FBFF"/>
<path d="M29.8763 17.9737C30.4639 17.9737 30.9402 17.3744 30.9402 16.6353C30.9402 15.8961 30.4639 15.2969 29.8763 15.2969C29.2888 15.2969 28.8125 15.8961 28.8125 16.6353C28.8125 17.3744 29.2888 17.9737 29.8763 17.9737Z" fill="white"/>
<path d="M38.5482 17.9737C39.1358 17.9737 39.6121 17.3744 39.6121 16.6353C39.6121 15.8961 39.1358 15.2969 38.5482 15.2969C37.9607 15.2969 37.4844 15.8961 37.4844 16.6353C37.4844 17.3744 37.9607 17.9737 38.5482 17.9737Z" fill="white"/>
<path d="M32.5678 15.8018C33.1553 15.8018 33.6316 15.2026 33.6316 14.4634C33.6316 13.7242 33.1553 13.125 32.5678 13.125C31.9802 13.125 31.5039 13.7242 31.5039 14.4634C31.5039 15.2026 31.9802 15.8018 32.5678 15.8018Z" fill="white"/>
<path d="M35.8529 15.8018C36.4405 15.8018 36.9168 15.2026 36.9168 14.4634C36.9168 13.7242 36.4405 13.125 35.8529 13.125C35.2654 13.125 34.7891 13.7242 34.7891 14.4634C34.7891 15.2026 35.2654 15.8018 35.8529 15.8018Z" fill="white"/>
<path d="M9.59855 12.2031V12.2871C9.5537 14.6182 7.64345 16.5007 5.30185 16.5007H0V40.8567C0 41.5734 0.581013 42.1545 1.29783 42.1545H15.2841C15.2824 42.0738 15.2924 41.9921 15.3165 41.9118L16.8966 36.6606C16.9963 36.329 17.2959 36.1063 17.6422 36.1063H18.7775L18.7421 35.9937C18.6679 35.7582 18.6303 35.5174 18.6303 35.2783C18.6303 33.9617 19.7014 32.8906 21.018 32.8906C21.5819 32.8906 22.1295 33.0914 22.56 33.4559L22.6159 33.5033L22.6718 33.4559C23.1023 33.0914 23.6499 32.8906 24.2138 32.8906C24.7777 32.8906 25.3254 33.0914 25.7558 33.4559L25.8117 33.5033L25.8677 33.4559C26.0922 33.2656 26.3492 33.1213 26.6234 33.0255V12.2031H9.59855Z" fill="#FFE177"/>
<path d="M24.2146 32.8907C24.7785 32.8907 25.3262 33.0914 25.7566 33.456L25.8125 33.5034L25.8685 33.456C26.0931 33.2657 26.35 33.1213 26.6242 33.0256V12.2031H22.7578V33.3902C23.1743 33.0686 23.6867 32.8907 24.2146 32.8907Z" fill="#FFD15B"/>
<path d="M9.68338 12.2031H0V16.5847H5.30176C7.72164 16.5847 9.68338 14.623 9.68338 12.2031Z" fill="#FE646F"/>
<path d="M6.74481 12.2031C6.74481 14.623 4.78316 16.5847 2.36328 16.5847H5.30278C7.72266 16.5847 9.68431 14.623 9.68431 12.2031H6.74481Z" fill="#FD4755"/>
<path d="M16.8955 36.6611C16.9952 36.3295 17.2949 36.1068 17.6411 36.1068H18.7764L18.741 35.9943C18.6668 35.7587 18.6292 35.5179 18.6292 35.2788C18.6292 34.8284 18.7547 34.4068 18.9724 34.0469H4.82616C4.34828 34.0469 3.96094 34.4342 3.96094 34.9121V36.8588C3.96094 37.3367 4.34828 37.724 4.82616 37.724H16.5756L16.8955 36.6611Z" fill="#0593FC"/>
<path d="M14.8946 37.7241H16.5767L16.8965 36.6611C16.9962 36.3295 17.2959 36.1068 17.6421 36.1068H18.7774L18.742 35.9943C18.6678 35.7587 18.6302 35.5179 18.6302 35.2788C18.6302 34.8284 18.7557 34.4068 18.9734 34.0469H14.8945C15.3724 34.0469 15.7598 34.4342 15.7598 34.9121V36.8588C15.7598 37.3368 15.3724 37.7241 14.8946 37.7241Z" fill="#0182FC"/>
<path d="M20.0867 20.2299L17.9469 19.1964C17.1912 18.8314 16.2872 18.9844 15.6939 19.5779C15.419 19.8528 15.2379 20.1968 15.1602 20.5635C16.0492 20.7929 16.8908 21.1875 17.6495 21.7387C18.9425 22.6781 19.5308 24.2816 19.177 25.8157L19.5053 25.8989C20.7519 26.2145 21.9623 25.2723 21.9623 23.9864V23.2187C21.9622 21.9452 21.2335 20.7839 20.0867 20.2299Z" fill="#EA9B58"/>
<path d="M8.96908 21.7388C9.72781 21.1875 10.5693 20.7929 11.4584 20.5635C11.3806 20.1968 11.1996 19.8528 10.9246 19.5779C10.3312 18.9844 9.42731 18.8314 8.6716 19.1964L6.53182 20.2299C5.38499 20.7838 4.65625 21.9452 4.65625 23.2187V23.9864C4.65625 25.2723 5.86673 26.2144 7.11325 25.8989L7.44163 25.8158C7.08789 24.2815 7.67612 22.6781 8.96908 21.7388Z" fill="#EA9B58"/>
<path d="M8.92138 21.6608C7.50715 22.6882 6.91539 24.5095 7.45558 26.1721L8.54202 29.5158C8.89409 30.5993 9.90376 31.3329 11.0431 31.3329H15.5799C16.7191 31.3329 17.7289 30.5993 18.0809 29.5158L19.1674 26.1721C19.7076 24.5096 19.1158 22.6882 17.7016 21.6608C15.0838 19.7589 11.5391 19.7589 8.92138 21.6608Z" fill="#D88A55"/>
<path d="M17.6993 21.66C15.9991 20.4247 13.9079 19.9927 11.9336 20.362C12.999 20.5613 14.0305 20.9934 14.948 21.66C16.3622 22.6874 16.954 24.5087 16.4138 26.1712L15.3274 29.515C14.9753 30.5985 13.9656 31.3321 12.8263 31.3321H15.5776C16.7168 31.3321 17.7266 30.5985 18.0787 29.515L19.1651 26.1712C19.7053 24.5087 19.1135 22.6874 17.6993 21.66Z" fill="#C57A44"/>
<path d="M13.5703 28.6418C13.5062 28.7206 13.4111 28.7658 13.3096 28.7658C13.208 28.7658 13.113 28.7206 13.0489 28.6418L12.6797 28.1875V31.3379H13.9395V28.1876L13.5703 28.6418Z" fill="#7A6D79"/>
<path d="M10.7979 25.8536C10.4499 25.8536 10.168 25.5716 10.168 25.2237V24.5049C10.168 24.157 10.4499 23.875 10.7979 23.875C11.1458 23.875 11.4278 24.157 11.4278 24.5049V25.2237C11.4278 25.5717 11.1457 25.8536 10.7979 25.8536Z" fill="#7A6D79"/>
<path d="M15.8252 25.8536C15.4773 25.8536 15.1953 25.5716 15.1953 25.2237V24.5049C15.1953 24.157 15.4773 23.875 15.8252 23.875C16.1732 23.875 16.4551 24.157 16.4551 24.5049V25.2237C16.4551 25.5717 16.1732 25.8536 15.8252 25.8536Z" fill="#7A6D79"/>
<path d="M21.8828 18.6484C22.8385 18.6484 23.6132 17.8736 23.6132 16.9179C23.6132 15.9622 22.8385 15.1875 21.8828 15.1875C20.9271 15.1875 20.1523 15.9622 20.1523 16.9179C20.1523 17.8736 20.9271 18.6484 21.8828 18.6484Z" fill="white"/>
<path d="M21.8835 15.1875C21.6048 15.1875 21.3425 15.2549 21.1094 15.3719C21.6759 15.6562 22.0656 16.2408 22.0656 16.9179C22.0656 17.595 21.6759 18.1797 21.1094 18.4639C21.3425 18.5809 21.6049 18.6484 21.8835 18.6484C22.8391 18.6484 23.6139 17.8736 23.6139 16.9179C23.6139 15.9623 22.8391 15.1875 21.8835 15.1875Z" fill="#F2FBFF"/>
<path d="M16.5588 4.41297H10.0698C9.47246 4.41297 8.98828 3.92879 8.98828 3.33148C8.98828 2.73418 9.47246 2.25 10.0698 2.25H16.5588C17.1561 2.25 17.6403 2.73418 17.6403 3.33148C17.6403 3.92879 17.1561 4.41297 16.5588 4.41297Z" fill="white"/>
<path d="M32.9364 36.099C33.0284 35.8401 33.0789 35.5615 33.0789 35.2711C33.0789 33.9046 31.9711 32.7969 30.6047 32.7969C29.9953 32.7969 29.4378 33.0175 29.0067 33.3828C28.5756 33.0176 28.0181 32.7969 27.4088 32.7969C26.7995 32.7969 26.242 33.0175 25.8109 33.3828C25.3797 33.0176 24.8223 32.7969 24.213 32.7969C23.6037 32.7969 23.0462 33.0175 22.6151 33.3828C22.1839 33.0176 21.6265 32.7969 21.0172 32.7969C19.6507 32.7969 18.543 33.9046 18.543 35.2711C18.543 35.5615 18.5934 35.8401 18.6854 36.099H32.9364Z" fill="#D88A55"/>
<path d="M30.3698 35.2711C30.3698 35.5617 30.3186 35.8401 30.2265 36.099H32.9358C33.0278 35.8401 33.0782 35.5615 33.0782 35.2711C33.0782 33.9046 31.9705 32.7969 30.604 32.7969C30.104 32.7969 29.639 32.9457 29.25 33.2008C29.9242 33.6429 30.3698 34.4047 30.3698 35.2711Z" fill="#C57A44"/>
<path d="M36.3613 41.8768L34.7408 36.6257C34.6288 36.263 34.2936 36.0156 33.914 36.0156H17.6411C17.2593 36.0156 16.9226 36.2659 16.8126 36.6316L15.2326 41.8827C15.0655 42.438 15.4812 42.9972 16.0611 42.9972H35.5345C36.1169 42.9972 36.533 42.4334 36.3613 41.8768Z" fill="#FE646F"/>
<path d="M36.36 41.8768L34.7395 36.6257C34.6275 36.263 34.2923 36.0156 33.9127 36.0156H30.3047C30.6843 36.0156 31.0195 36.263 31.1314 36.6257L32.7519 41.8768C32.9237 42.4333 32.5076 42.9972 31.9252 42.9972H35.5332C36.1157 42.9972 36.5317 42.4334 36.36 41.8768Z" fill="#FD4755"/>
<path d="M29.4446 40.1504H22.1768C21.8288 40.1504 21.5469 39.8684 21.5469 39.5205C21.5469 39.1726 21.8288 38.8906 22.1768 38.8906H29.4446C29.7926 38.8906 30.0745 39.1726 30.0745 39.5205C30.0745 39.8684 29.7926 40.1504 29.4446 40.1504Z" fill="white"/>
<path d="M5.74555 4.41297C6.34283 4.41297 6.82703 3.92877 6.82703 3.33148C6.82703 2.7342 6.34283 2.25 5.74555 2.25C5.14826 2.25 4.66406 2.7342 4.66406 3.33148C4.66406 3.92877 5.14826 4.41297 5.74555 4.41297Z" fill="white"/>
<path d="M20.8862 4.41297C21.4835 4.41297 21.9677 3.92877 21.9677 3.33148C21.9677 2.7342 21.4835 2.25 20.8862 2.25C20.2889 2.25 19.8047 2.7342 19.8047 3.33148C19.8047 3.92877 20.2889 4.41297 20.8862 4.41297Z" fill="white"/>
<path d="M13.6391 28.6938L14.6878 27.4036C14.9109 27.1292 14.7156 26.7188 14.3619 26.7188H12.2645C11.9108 26.7188 11.7156 27.1291 11.9386 27.4036L12.9874 28.6938C13.1554 28.9006 13.471 28.9006 13.6391 28.6938Z" fill="#685E68"/>
</svg>
