<svg width="42" height="42" viewBox="0 0 42 42" fill="none" xmlns="http://www.w3.org/2000/svg">
<path d="M9.35251 17.2325C9.00249 17.2325 8.71875 16.9487 8.71875 16.5987V13.0478C8.71875 12.6978 9.00249 12.4141 9.35251 12.4141C9.70253 12.4141 9.98627 12.6978 9.98627 13.0478V16.5987C9.98636 16.9487 9.70253 17.2325 9.35251 17.2325Z" fill="#78C2A4"/>
<path d="M15.158 25.9024C15.719 24.9241 16.0413 23.7915 16.0413 22.583C16.0413 19.2011 13.53 16.4059 10.2706 15.9602C9.97179 15.9194 9.66664 16.0686 9.35657 16.0686C5.66466 16.0686 4.5 18.8911 4.5 22.583C4.5 23.7915 4.626 24.9241 4.92344 25.9024H15.158Z" fill="#E5646E"/>
<path d="M5.62355 25.9042C5.06263 24.926 4.74058 23.7933 4.74058 22.5848C4.74058 20.8588 5.39469 19.2858 6.46862 18.0998L5.59517 17.6641L5.5115 17.8571L4.28368 18.2314C3.27906 19.401 2.67188 20.922 2.67188 22.5848C2.67188 23.7933 2.99425 24.9259 3.55517 25.9042H5.62355Z" fill="#DB4655"/>
<path d="M9.18712 16.0559C7.32751 16.8533 7.00718 16.3415 5.78125 17.7687L6.42395 18.098L6.85116 18.072C7.67581 18.0218 8.44836 18.4769 8.80437 19.2224L9.12954 19.9032C9.22141 20.0956 9.49523 20.0956 9.5871 19.9032L9.91227 19.2224C10.2683 18.4769 11.0408 18.0218 11.8655 18.072L14.43 18.2278C13.3914 17.0187 11.929 16.1842 10.2725 15.9574C9.97346 15.9165 9.4721 15.9337 9.18712 16.0559Z" fill="#B3E59F"/>
<path d="M10.363 15.9672C10.0335 15.9171 9.69628 15.8906 9.35282 15.8906C7.32373 15.8906 5.50718 16.7959 4.28125 18.2231L6.41853 18.0932C7.42725 16.9778 8.80683 16.2041 10.363 15.9672Z" fill="#95D6A4"/>
<path d="M21.4833 1.35901C21.4245 1.34474 21.3729 1.31143 21.3362 1.26336C20.8833 0.669058 20.2273 0.23791 19.4715 0.0742604C19.2528 0.0269292 19.0294 0.137751 18.7964 0.137751C17.7586 0.137751 17.0807 0.733533 16.4967 1.49985C16.4601 1.54792 16.4083 1.58131 16.3496 1.5955C15.1587 1.88441 14.8307 2.7796 14.966 4.08699C15.0815 5.20284 15.1916 5.86581 16.2974 6.05497C16.5894 6.10492 16.9283 6.28399 17.198 6.23953C17.3523 6.2141 18.1061 7.14621 18.1061 7.30264L18.7628 10.6243H20.1797V6.56256C20.1797 6.40613 20.3197 6.28768 20.474 6.31311C20.7436 6.35757 21.0274 6.35946 21.3194 6.30959C22.4251 6.12067 23.2844 5.20333 23.4001 4.08756C23.5358 2.77993 22.6743 1.648 21.4833 1.35901Z" fill="#B3E59F"/>
<path d="M18.469 6.31112C18.1993 6.35558 17.9153 6.35747 17.6233 6.30759C16.5176 6.11851 15.6583 5.20093 15.5428 4.08508C15.4075 2.77769 16.2689 1.64601 17.4598 1.3571C17.5186 1.34283 17.5703 1.30952 17.6069 1.26145C18.0597 0.66723 18.7161 0.237312 19.4719 0.0736627C19.253 0.0262495 19.0264 0 18.7934 0C17.7556 0 16.8339 0.495049 16.25 1.26137C16.2134 1.30944 16.1616 1.34283 16.1029 1.35702C14.912 1.64593 14.0506 2.77761 14.1859 4.085C14.3014 5.20085 15.1606 6.11843 16.2664 6.30751C16.5584 6.35747 16.8424 6.35558 17.1121 6.31104C17.2664 6.28561 17.4064 6.40414 17.4064 6.56049V10.6223H18.7634V6.56057C18.7634 6.40422 18.6233 6.28569 18.469 6.31112Z" fill="#95D6A4"/>
<path d="M20.5568 25.6296C20.576 25.7823 20.605 25.9319 20.6417 26.0785H34.7488C34.7855 25.9319 34.8145 25.7823 34.8337 25.6296C36.7458 25.4226 38.2344 23.8038 38.2344 21.8368C38.2344 19.7295 36.526 18.0211 34.4187 18.0211C33.7528 18.0211 33.127 18.1921 32.5821 18.4919C32.5821 18.4871 32.5825 18.4824 32.5825 18.4777C32.5825 16.1087 30.8969 14.1333 28.6595 13.6856C28.3478 13.6232 28.0254 13.7937 27.6953 13.7937C24.9962 13.7937 23.1741 15.9855 23.1741 18.6846C23.1741 18.6894 22.8085 18.487 22.8085 18.4918C22.2636 18.192 21.6378 18.021 20.9719 18.021C18.8646 18.021 17.1563 19.7294 17.1563 21.8367C17.1562 23.8038 18.6448 25.4226 20.5568 25.6296Z" fill="#B3E59F"/>
<path d="M22.5851 25.6398C20.673 25.4328 19.1844 23.8139 19.1844 21.8469C19.1844 20.0912 20.3707 18.6133 21.9852 18.1688C21.6624 18.08 21.323 18.0312 20.9719 18.0312C18.8646 18.0312 17.1562 19.7396 17.1562 21.8469C17.1562 23.8139 18.6448 25.4328 20.5568 25.6398C20.7927 27.5207 22.3966 28.9761 24.3415 28.9761H26.3696C24.4248 28.9761 22.821 27.5207 22.5851 25.6398Z" fill="#95D6A4"/>
<path d="M22.9984 18.0243C23.6643 18.0243 24.2901 18.1952 24.835 18.495C24.835 18.4903 24.8346 18.4856 24.8346 18.4808C24.8346 16.1295 26.4953 14.1666 28.7077 13.6997C28.3805 13.6307 28.0414 13.5938 27.6936 13.5938C25.1471 13.5938 23.0565 15.5417 22.8281 18.0286C22.8846 18.0261 22.9413 18.0243 22.9984 18.0243Z" fill="#95D6A4"/>
<path d="M17.4412 25.9065H21.9533L22.9035 21.307L21.1111 20.5516L23.1654 20.0395L23.6913 17.4942L22.8211 16.8604L23.9505 16.2396L24.2415 14.8314C24.3204 14.4497 24.3589 14.0626 24.3575 13.6764C24.3567 13.4661 23.2027 13.161 23.1784 12.9524C23.154 12.7429 24.2592 12.6298 24.2113 12.4239C24.1501 12.1614 24.0699 11.9025 23.9707 11.6495L23.4558 10.3358C23.1178 9.47349 22.2862 8.90625 21.3601 8.90625H17.7053C16.7792 8.90625 15.9415 9.51639 15.6035 10.3786L15.0886 11.6923C14.692 12.7043 14.7488 13.7668 14.9688 14.8313L17.4412 25.9065Z" fill="#FFC269"/>
<path d="M13.6413 16.2395L15.0975 16.8603L13.9005 17.4941L14.4264 20.0394L15.7592 20.6732L14.6882 21.3069L15.6385 25.9064H17.6666L15.3785 14.8313C15.1586 13.7669 15.2527 12.6615 15.6493 11.6495L16.1642 10.3358C16.5021 9.47349 17.3338 8.90625 18.2599 8.90625H16.2318C15.3057 8.90625 14.474 9.47349 14.1361 10.3358L13.6212 11.6495C13.5233 11.8992 13.4439 12.1545 13.383 12.4136C13.3344 12.6207 14.348 12.8366 14.3232 13.0474C14.2984 13.2583 13.2351 13.464 13.2344 13.6764C13.233 14.0625 13.2715 14.4496 13.3504 14.8314L13.6413 16.2395Z" fill="#FFA95F"/>
<path d="M40.5697 7.43146L40.5908 7.42448C40.743 7.37428 40.743 7.15895 40.5908 7.10875L40.5696 7.10178C39.6692 6.80467 38.9629 6.09815 38.6657 5.19771C38.6633 5.19057 38.661 5.1836 38.6587 5.17654C38.6085 5.02438 38.3932 5.02454 38.343 5.17671L38.3361 5.19795C38.039 6.09831 37.3327 6.80459 36.4322 7.10178L36.411 7.10875C36.2588 7.15895 36.2588 7.37428 36.411 7.42448L36.4322 7.43146C37.3326 7.72857 38.039 8.43509 38.3362 9.33553C38.3385 9.34267 38.3408 9.34964 38.3431 9.35669C38.3933 9.50886 38.6086 9.5087 38.6588 9.35653L38.6657 9.33545C38.9629 8.43493 39.6693 7.72857 40.5697 7.43146Z" fill="#FFC269"/>
<path d="M39.4744 41.9958H4.49418L3.04718 41.7005C2.59413 41.7005 2.51562 41.6286 2.51562 41.1756L3.19335 29.2976L5.52776 27.4531H29.3015L40.2946 28.9663V41.1756C40.2947 41.6286 39.9274 41.9958 39.4744 41.9958Z" fill="#F4DBB3"/>
<path d="M3.85296 41.1508V27.4531H1.70312V41.1508C1.70312 41.6175 2.08145 41.9958 2.5482 41.9958H4.69803C4.23128 41.9958 3.85296 41.6175 3.85296 41.1508Z" fill="#EAC89F"/>
<path d="M41.1832 28.9669H3.04106C2.58801 28.9669 1.0625 28.7325 1.0625 28.2794L1.53499 25.9022C1.53499 25.4492 2.64707 24.5625 3.10012 24.5625H41.1832C41.6363 24.5625 42.0035 24.9297 42.0035 25.3828V28.1466C42.0035 28.5997 41.6363 28.9669 41.1832 28.9669Z" fill="#D2AF8C"/>
<path d="M2.55547 28.1219V25.4076C2.55547 24.9408 2.93379 24.5625 3.40054 24.5625H0.84507C0.378321 24.5626 0 24.9409 0 25.4077V28.122C0 28.5888 0.378321 28.9671 0.84507 28.9671H3.40054C2.93379 28.967 2.55547 28.5887 2.55547 28.1219Z" fill="#C69B75"/>
<path d="M23.5744 35.9297H18.427C17.4491 35.9297 16.6562 35.1369 16.6562 34.1589V34.052C16.6562 33.0741 17.4491 32.2812 18.427 32.2812H23.5744C24.5523 32.2812 25.3452 33.0741 25.3452 34.052V34.1589C25.3452 35.1369 24.5523 35.9297 23.5744 35.9297Z" fill="#D2AF8C"/>
<path d="M9.05412 4.35333L9.0752 4.34636C9.22736 4.29616 9.22736 4.08083 9.0752 4.03063L9.05395 4.02365C8.15359 3.72654 7.44724 3.02002 7.15013 2.11958C7.14775 2.11244 7.14545 2.10547 7.14315 2.09842C7.09295 1.94625 6.8777 1.94642 6.8275 2.09858L6.82053 2.11983C6.52334 3.02018 5.81706 3.72654 4.91662 4.02365L4.89537 4.03063C4.74321 4.08083 4.74321 4.29616 4.89537 4.34636L4.91662 4.35333C5.81698 4.65044 6.52334 5.35697 6.82053 6.25741C6.82291 6.26454 6.82521 6.27151 6.8275 6.27857C6.8777 6.43073 7.09295 6.43057 7.14315 6.27841L7.15013 6.25732C7.44732 5.3568 8.15368 4.65053 9.05412 4.35333Z" fill="#FFC269"/>
<path d="M33.8846 3.43579L33.9152 3.4257C34.136 3.35286 34.136 3.04066 33.9152 2.96782L33.8845 2.95764C32.5785 2.52666 31.5541 1.50194 31.1232 0.196113C31.1198 0.185859 31.1164 0.175605 31.1131 0.165433C31.0402 -0.0553085 30.728 -0.0550624 30.6552 0.16568L30.645 0.196441C30.214 1.50235 29.1897 2.52666 27.8838 2.95764L27.8531 2.96782C27.6323 3.04066 27.6323 3.35286 27.8531 3.4257L27.8838 3.43588C29.1897 3.86686 30.2142 4.89158 30.6451 6.19741C30.6485 6.20766 30.6519 6.21791 30.6552 6.22809C30.728 6.44883 31.0402 6.44858 31.1131 6.22784L31.1232 6.19724C31.5542 4.89125 32.5786 3.86678 33.8846 3.43579Z" fill="#FFC269"/>
<path d="M28.956 18.6865C28.6059 18.6865 28.3223 18.4028 28.3223 18.0528C28.3223 17.8266 28.1383 17.6425 27.9121 17.6425C27.6859 17.6425 27.5019 17.8265 27.5019 18.0528C27.5019 18.4028 27.2182 18.6865 26.8681 18.6865C26.5181 18.6865 26.2344 18.4028 26.2344 18.0528C26.2344 17.1276 26.987 16.375 27.9122 16.375C28.8373 16.375 29.59 17.1276 29.59 18.0528C29.5899 18.4028 29.3061 18.6865 28.956 18.6865Z" fill="#78C2A4"/>
<path d="M34.7217 22.6787C34.3716 22.6787 34.088 22.395 34.088 22.0449C34.088 21.8188 33.904 21.6347 33.6778 21.6347C33.4515 21.6347 33.2675 21.8187 33.2675 22.0449C33.2675 22.395 32.9838 22.6787 32.6338 22.6787C32.2837 22.6787 32 22.395 32 22.0449C32 21.1198 32.7526 20.3672 33.6778 20.3672C34.603 20.3672 35.3557 21.1198 35.3557 22.0449C35.3556 22.395 35.0718 22.6787 34.7217 22.6787Z" fill="#78C2A4"/>
<path d="M27.4326 22.6787C27.0825 22.6787 26.7988 22.395 26.7988 22.0449C26.7988 21.8188 26.6148 21.6347 26.3886 21.6347C26.1625 21.6347 25.9785 21.8187 25.9785 22.0449C25.9785 22.395 25.6947 22.6787 25.3447 22.6787C24.9947 22.6787 24.7109 22.395 24.7109 22.0449C24.7109 21.1198 25.4636 20.3672 26.3887 20.3672C27.3139 20.3672 28.0665 21.1198 28.0665 22.0449C28.0664 22.395 27.7826 22.6787 27.4326 22.6787Z" fill="#78C2A4"/>
<path d="M16.8281 12.4141H15.4145C15.4145 12.4141 13.4781 12.843 13.4766 13.2677C13.5013 13.2707 15.2665 13.6817 15.2665 13.6817H16.8281C17.1781 13.6817 17.4618 13.3979 17.4618 13.0479C17.4618 12.6979 17.1781 12.4141 16.8281 12.4141Z" fill="#F49751"/>
<path d="M16.8297 16.2266H15.6716L14.4313 16.5743C14.3874 16.5743 14.3696 16.6451 14.3281 16.6536L15.2101 17.0687L15.9335 17.4942H16.8297C17.1797 17.4942 17.4635 17.2104 17.4635 16.8604C17.4635 16.5103 17.1797 16.2266 16.8297 16.2266Z" fill="#F49751"/>
<path d="M17.4642 20.6806C17.4642 20.3306 17.1805 20.0469 16.8305 20.0469H16.4602L15.7234 20.5393L15.2109 21.0085L16.7221 21.3144H16.8305C17.1804 21.3144 17.4642 21.0307 17.4642 20.6806Z" fill="#F49751"/>
<path d="M15.4105 12.4062H13.3824C13.2852 12.8205 13.2359 13.2442 13.2344 13.6689C13.2591 13.6719 13.2842 13.6739 13.3098 13.6739H15.2625C15.2636 13.2474 15.3128 12.8221 15.4105 12.4062Z" fill="#F27144"/>
<path d="M13.7688 16.2188C13.7249 16.2188 13.6821 16.2233 13.6406 16.2318L13.8998 17.4864H15.9279L15.666 16.2188H13.7688Z" fill="#F27144"/>
<path d="M14.4297 20.0312L14.6916 21.2988H16.7197L16.4578 20.0312H14.4297Z" fill="#F27144"/>
<path d="M20.7744 12.4063C20.4244 12.4063 20.1406 12.6901 20.1406 13.0401C20.1406 13.3901 20.4244 13.6739 20.7744 13.6739H24.2887C24.3143 13.6739 24.3393 13.6719 24.3641 13.6689C24.3625 13.2442 24.3133 12.8205 24.216 12.4062H20.7744V12.4063Z" fill="#F49751"/>
<path d="M23.9579 16.2318C23.9165 16.2233 23.8736 16.2188 23.8296 16.2188H20.7744C20.4244 16.2188 20.1406 16.5025 20.1406 16.8525C20.1406 17.2025 20.4244 17.4863 20.7744 17.4863H23.6987L23.9579 16.2318Z" fill="#F49751"/>
<path d="M23.1728 20.0312H20.7744C20.4244 20.0312 20.1406 20.315 20.1406 20.665C20.1406 21.015 20.4244 21.2988 20.7744 21.2988H22.9109L23.1728 20.0312Z" fill="#F49751"/>
</svg>
