<svg xmlns="http://www.w3.org/2000/svg" fill="none" viewBox="0 0 264 303.75"><path d="M135.314 245.505C196.358 245.505 245.845 196.019 245.845 134.974C245.845 73.93 196.358 24.4437 135.314 24.4437C74.2695 24.4437 24.7832 73.93 24.7832 134.974C24.7832 196.019 74.2695 245.505 135.314 245.505Z" fill="#FFCA00"/><path d="M132.605 133.769L135.315 27.1321L138.024 133.769H132.605Z" fill="#FFFEA6"/><path d="M138.024 136.175L135.315 242.811L132.605 136.175H138.024Z" fill="#FFFEA6"/><path d="M132.438 134.254L116.585 28.7654L137.774 133.308L132.438 134.254Z" fill="#FFFEA6"/><path d="M138.199 135.688L154.042 241.167L132.853 136.625L138.199 135.688Z" fill="#FFFEA6"/><path d="M132.355 134.772L98.4354 33.6376L137.453 132.917L132.355 134.772Z" fill="#FFFEA6"/><path d="M138.272 135.174L172.201 236.309L133.183 137.03L138.272 135.174Z" fill="#FFFEA6"/><path d="M132.372 135.288L81.4056 41.5837L137.066 132.578L132.372 135.288Z" fill="#FFFEA6"/><path d="M138.271 134.661L189.247 228.365L133.578 137.37L138.271 134.661Z" fill="#FFFEA6"/><path d="M132.462 135.791L65.9906 52.3649L136.613 132.31L132.462 135.791Z" fill="#FFFEA6"/><path d="M138.161 134.156L204.622 217.582L134 137.637L138.161 134.156Z" fill="#FFFEA6"/><path d="M132.65 136.283L52.7044 65.6603L136.131 132.122L132.65 136.283Z" fill="#FFFEA6"/><path d="M137.976 133.67L217.922 204.292L134.495 137.821L137.976 133.67Z" fill="#FFFEA6"/><path d="M132.918 136.717L41.9231 81.0477L135.627 132.024L132.918 136.717Z" fill="#FFFEA6"/><path d="M137.71 133.229L228.704 188.889L135 137.923L137.71 133.229Z" fill="#FFFEA6"/><path d="M133.256 137.104L33.9771 98.0868L135.112 132.016L133.256 137.104Z" fill="#FFFEA6"/><path d="M137.369 132.835L236.649 171.861L135.514 137.932L137.369 132.835Z" fill="#FFFEA6"/><path d="M133.665 137.435L29.1232 116.245L134.602 132.089L133.665 137.435Z" fill="#FFFEA6"/><path d="M136.983 132.514L241.525 153.703L136.037 137.85L136.983 132.514Z" fill="#FFFEA6"/><path d="M134.108 137.685L27.4716 134.975L134.108 132.266V137.685Z" fill="#FFFEA6"/><path d="M136.514 132.266L243.151 134.976L136.514 137.685V132.266Z" fill="#FFFEA6"/><path d="M134.602 137.85L29.1232 153.703L133.665 132.514L134.602 137.85Z" fill="#FFFEA6"/><path d="M136.037 132.089L241.525 116.245L136.983 137.435L136.037 132.089Z" fill="#FFFEA6"/><path d="M135.112 137.932L33.9771 171.861L133.256 132.835L135.112 137.932Z" fill="#FFFEA6"/><path d="M135.514 132.016L236.649 98.0869L137.369 137.104L135.514 132.016Z" fill="#FFFEA6"/><path d="M135.627 137.923L41.9231 188.889L132.918 133.229L135.627 137.923Z" fill="#FFFEA6"/><path d="M135 132.024L228.704 81.0477L137.71 136.717L135 132.024Z" fill="#FFFEA6"/><path d="M136.131 137.821L52.7044 204.292L132.65 133.67L136.131 137.821Z" fill="#FFFEA6"/><path d="M134.495 132.122L217.922 65.6603L137.976 136.283L134.495 132.122Z" fill="#FFFEA6"/><path d="M136.613 137.637L65.9906 217.582L132.462 134.156L136.613 137.637Z" fill="#FFFEA6"/><path d="M134 132.31L204.622 52.3649L138.161 135.791L134 132.31Z" fill="#FFFEA6"/><path d="M137.066 137.37L81.4056 228.365L132.372 134.661L137.066 137.37Z" fill="#FFFEA6"/><path d="M133.578 132.578L189.247 41.5837L138.271 135.288L133.578 132.578Z" fill="#FFFEA6"/><path d="M137.453 137.03L98.4354 236.309L132.355 135.174L137.453 137.03Z" fill="#FFFEA6"/><path d="M133.183 132.917L172.201 33.6376L138.272 134.772L133.183 132.917Z" fill="#FFFEA6"/><path d="M137.774 136.625L116.585 241.167L132.438 135.688L137.774 136.625Z" fill="#FFFEA6"/><path d="M132.853 133.308L154.042 28.7653L138.199 134.254L132.853 133.308Z" fill="#FFFEA6"/><path d="M69.2728 17.1308C69.2728 17.1308 67.7206 18.1319 64.9927 19.8862C64.3222 20.3363 63.5414 20.7863 62.7515 21.365C61.9616 21.9345 61.1166 22.559 60.2073 23.2203C59.298 23.8816 58.3336 24.5797 57.3233 25.3237C56.3497 26.1228 55.3302 26.9678 54.2555 27.8403C53.7228 28.2812 53.1809 28.7221 52.6206 29.1813C52.6023 29.1997 52.5747 29.2181 52.5563 29.2364C52.1155 29.613 51.4082 30.2376 50.9765 30.6142C49.8835 31.6245 48.7538 32.6716 47.5965 33.737C46.4117 34.7749 45.3187 35.9873 44.1706 37.163C43.6011 37.76 43.0133 38.357 42.4346 38.9632C42.1407 39.2663 41.8468 39.5694 41.5529 39.8817C41.2681 40.194 40.9926 40.5246 40.717 40.8553C39.6057 42.1595 38.4667 43.4822 37.3186 44.8232C36.7308 45.4753 36.2164 46.2101 35.6745 46.9081C34.6091 48.3134 33.5253 49.7279 32.4415 51.1515L32.4139 51.1883C31.9087 51.9414 31.4036 52.6946 30.8984 53.4477C30.3932 54.2009 29.8881 54.9541 29.3737 55.7072C28.5471 56.938 27.6745 58.1412 27.1785 59.5924C26.7285 60.3088 26.2968 61.0069 25.8467 61.7233C24.965 62.7153 24.469 63.9369 23.8536 65.0758C23.4403 65.8749 23.0362 66.674 22.6228 67.4639C22.2187 68.2538 21.8146 69.0437 21.4104 69.8336C21.0522 70.6418 20.7032 71.4501 20.345 72.2492C19.6561 73.8565 18.9121 75.4088 18.2968 76.9886C17.1487 80.1757 15.8995 83.2067 15.0912 86.201C14.6504 87.689 14.1911 89.1218 13.7962 90.5179C13.4563 91.9324 13.1349 93.3009 12.8226 94.6144C12.6664 95.2665 12.5103 95.9094 12.3633 96.534C12.2898 96.8463 12.2164 97.1586 12.1429 97.4617C12.0878 97.7739 12.0327 98.077 11.9868 98.3801C11.7755 99.5926 11.5734 100.741 11.3897 101.815C11.206 102.89 11.0223 103.9 10.8662 104.828C10.7652 105.765 10.6825 106.454 10.5998 107.234C10.5723 107.446 10.5539 107.657 10.5264 107.859C10.2784 110.109 8.23014 111.735 5.97984 111.469C3.62852 111.193 2.01198 108.989 2.43448 106.665C2.48041 106.444 2.51714 106.206 2.56307 105.967C2.71921 105.149 2.87536 104.323 3.05906 103.34C3.29787 102.366 3.55503 101.347 3.83977 100.217C4.1245 99.0874 4.41841 97.9117 4.7307 96.6534C4.81336 96.3411 4.88684 96.0288 4.9695 95.7073C5.07054 95.3859 5.17157 95.0736 5.2726 94.7429C5.47467 94.0908 5.68593 93.4295 5.89718 92.7406C6.32887 91.3813 6.76974 89.9668 7.23817 88.4972C7.7617 87.0552 8.34955 85.5764 8.92819 84.0517C10.012 80.9748 11.5459 77.8795 12.9879 74.6464C13.7503 73.0483 14.6412 71.4685 15.477 69.8519C15.8995 69.0437 16.3312 68.2354 16.7629 67.4179C17.2405 66.628 17.7181 65.8381 18.2049 65.0391C18.6825 64.2492 19.1693 63.4501 19.6561 62.651C20.1521 61.8611 20.6022 61.0345 21.1533 60.2721C22.2187 58.7291 23.2933 57.1768 24.3588 55.6337C24.8731 54.8439 25.4702 54.1182 26.0488 53.3743C27.1969 51.9047 28.3358 50.4443 29.4748 48.9839L29.5023 48.9472C30.1177 48.2491 30.7331 47.5511 31.3393 46.853C31.9455 46.1641 32.5609 45.4753 33.1579 44.7864C33.7733 44.1067 34.3427 43.3995 34.9949 42.7749C36.2624 41.489 37.5207 40.2215 38.7515 38.9724C39.0638 38.6601 39.3577 38.3478 39.6791 38.0447C40.0006 37.7508 40.3221 37.4661 40.6436 37.1722C41.2865 36.5935 41.9203 36.024 42.5448 35.4638C43.8032 34.3432 44.9972 33.2043 46.2739 32.2307C47.523 31.2295 48.7446 30.2559 49.9203 29.3099L51.6103 28.0424C51.6103 28.0424 51.6654 28.0057 51.693 27.9873C52.29 27.5648 52.8686 27.1515 53.4381 26.7473C54.577 25.9391 55.6608 25.1675 56.6987 24.4327C57.7733 23.7622 58.8021 23.1193 59.7665 22.5223C60.7217 21.9253 61.6218 21.365 62.4576 20.8415C63.2843 20.3179 64.0925 19.9321 64.7998 19.528C67.6379 17.9758 69.2636 17.0848 69.2636 17.0848L69.2728 17.1308Z" fill="#26324A"/><mask id="mask0_332_7133" style="mask-type:luminance" maskUnits="userSpaceOnUse" x="24" y="0" width="222" height="246"><path d="M219.943 63.8624C236.109 83.0863 245.845 107.885 245.845 134.972C245.845 196.014 196.357 245.502 135.314 245.502C74.2713 245.502 24.7832 196.014 24.7832 134.972C24.7832 99.6558 41.3435 68.2068 67.1347 47.9725L71.9567 38.6223L77.7064 28.8772L85.4952 25.7911L90.7214 20.62L93.2013 12.2985L110.855 3.93106L142.395 -6.10352e-05L147.557 3.93106L165.854 2.23186L183.287 6.30076L188.715 12.2985L196.237 16.6889L204.733 25.837L213.441 36.9323L216.077 54.5122L219.934 63.8715L219.943 63.8624Z" fill="white"/></mask><g mask="url(#mask0_332_7133)"><path d="M179.045 154.476L182.297 165.58L185.484 175.913L184.639 189.488L181.452 202.026L179.045 206.572L177.208 222.875L174.82 228.919L171.054 229.507L172.616 218.659L157.929 226.779L153.585 226.522L148.542 208.4C148.542 208.4 146.705 202.549 146.834 202.228C146.962 201.906 147.679 193.328 147.936 192.942C148.193 192.556 150.985 187.872 151.252 187.486C151.518 187.1 155.284 180.34 155.284 180.34C155.284 180.34 161.392 171.183 161.713 170.145C162.035 169.107 167.362 159.95 167.628 159.491C167.895 159.031 170.099 155.789 170.099 155.789L172.506 150.921C172.506 150.921 173.938 147.559 176.014 149.47L179.064 154.494L179.045 154.476Z" fill="#C48257"/><path d="M171.546 184.484C171.546 184.484 173.429 204.112 162.444 216.851C162.444 216.851 170.701 196.277 171.546 184.484Z" fill="#601C07"/><path d="M167.225 248.557C167.225 248.557 168.208 240.19 168.29 239.694C168.373 239.198 172.727 239.005 172.727 239.005L175.032 240.879L175.776 247.528L176.841 260.929L175.115 280.171L175.032 294.647L176.841 317.508C176.841 317.508 180.295 326.307 182.766 328.034C182.766 328.034 191.813 331.735 196.662 332.231C196.662 332.231 202.991 335.685 203.652 340.048L202.008 344.245L198.389 345.935L195.514 347.8H190.417L187.367 346.055L178.568 347.166L174.049 347.974C174.049 347.974 164.892 347.092 164.451 344.466L161.383 343.988L158.665 342.491L157.93 340.507L162.109 331.212L163.67 322.486L161.126 305.035L162.072 290.312L163.955 271.391C163.955 271.391 164.295 258.514 164.451 258.183C164.607 257.852 167.225 248.557 167.225 248.557Z" fill="#FEDEC5"/><path d="M172.873 236.764C172.873 236.764 168.915 239.74 169.052 259.267C169.052 259.267 164.524 290.064 164.947 295.896C164.947 295.896 165.516 317.435 169.897 325.224C169.897 325.224 160.354 333.83 160.391 343.52C160.391 343.52 157.746 342.115 158.177 340.406L158.132 316.875L155.33 309.086L153.016 304.135L150.205 300.397L149.268 290.982L149.195 284.489L150.141 275.258L153.879 260.232L160.308 240.355C160.308 240.355 161.943 237.609 161.824 237.26C161.704 236.911 161.016 230.362 161.016 230.362C161.016 230.362 177.245 201.761 176.253 193.366C176.253 193.366 177.466 214.482 172.855 236.773L172.873 236.764Z" fill="#5F281B"/><path d="M149.406 280.397C149.406 280.397 146.705 297.545 150.811 304.563C150.811 304.563 157.727 315.18 157.47 331.024C157.452 332.145 157.47 333.274 157.507 334.404C157.553 335.809 157.351 338.234 155.881 340.613C155.881 340.613 165.268 350.11 174.875 349.027C174.875 349.027 186.88 348.099 191.068 349.247C192.106 349.532 193.181 349.669 194.246 349.541C195.853 349.348 197.911 348.714 199.151 346.877C199.151 346.877 206.168 346.877 205.837 342.992C205.837 342.992 206.986 335.773 196.726 331.539C196.561 331.474 196.395 331.401 196.23 331.336C185.438 327.13 183.279 332.31 177.989 316.769C177.989 316.769 175.619 295.617 175.619 289.463C175.619 289.463 176.758 274.84 178.016 267.685C178.577 264.507 178.788 261.293 178.632 258.069C178.292 251.061 177.116 240.066 173.139 233.995C173.139 233.995 182.095 222.661 180.478 205.614C180.478 205.614 194.191 186.592 182.636 161.187C182.636 161.187 179.403 146.684 173.902 148.411L173.038 149.871C173.038 149.871 176.308 149.311 177.778 155.694C178.081 157.026 178.448 158.339 178.935 159.616C180.597 163.97 184.225 174.753 183.932 185.334C183.895 186.592 183.711 187.85 183.408 189.081C182.49 192.774 180.212 201.49 178.016 206.046C178.016 206.046 177.025 224.59 171.293 235.63C171.293 235.63 177.162 253.605 174.976 268.604C174.976 268.604 173.773 281.343 173.488 289.123C173.488 289.123 173.424 315.722 176.473 321.573C176.657 321.922 176.813 322.271 176.96 322.638C177.566 324.163 179.615 328.204 184.841 330.703C186.935 331.704 189.24 332.163 191.564 332.237C194.439 332.319 199.766 333.173 201.291 338.161C201.291 338.161 201.897 339.979 202.026 341.605C202.136 343.02 200.639 343.956 199.408 343.258C197.92 342.413 195.624 340.448 192.382 335.966C192.382 335.966 195.339 340.301 196 343.708C196.368 345.601 194.779 347.346 192.868 347.107C191.234 346.905 189.369 345.876 188.983 342.404C188.983 342.404 187.357 335.819 185.089 335.607C185.089 335.607 185.879 337.49 186.338 339.64C187.027 342.919 184.51 346.115 181.158 345.94C180 345.885 179.018 345.435 178.788 344.168C178.788 344.168 178.081 338.932 175.959 338.436C175.959 338.436 176.363 340.494 176.207 342.625C176.023 345.187 173.736 347.043 171.183 346.749C168.63 346.455 165.562 345.362 166.113 341.761C166.113 341.761 168.235 335.396 169.723 333.339C169.723 333.339 164.276 338.721 162.696 341.66C162.338 342.331 161.667 342.808 160.905 342.818C159.867 342.827 158.756 342.055 159.463 338.299C159.463 338.299 160.666 315.3 157.479 311.828C157.479 311.828 155.495 293.642 159.812 282.951C159.812 282.951 155.21 292.788 154.861 300.007C154.861 300.007 152.776 286.386 154.365 278.781C154.365 278.781 149.553 289.61 151.674 301.78C151.674 301.78 148.276 288.269 149.369 280.379L149.406 280.397Z" fill="#0E030E"/><path d="M40.8687 187.121L28.46 219.819L26.1729 238.152L21.9846 256.641V281.771L23.8767 310.703C23.8767 310.703 18.375 340.297 46.5542 328.522L53.4245 305.918L50.7792 294.216L48.8963 259.203L50.7792 238.74L50.2098 200.806L44.1753 183.676L40.8779 187.111L40.8687 187.121Z" fill="#894325"/><path d="M11.0754 249.064C11.0754 249.064 23.3189 244.508 26.4968 246.18C26.4968 246.18 33.3579 244.967 33.8631 231.704C33.8631 231.704 33.3947 214.666 37.2799 207.98C37.2799 207.98 42.6346 193.78 45.6381 190.152L52.4808 175.309L54.4188 162.698L53.4085 156.104L43.3143 162.478L35.8746 180.379L28.6461 194.496L23.576 207.337L23.0341 215.42L22.0605 222.648L15.4842 238.391L11.0662 246.051L10.5703 249.064" fill="#C58453"/><path d="M30.0564 249.597C30.0564 249.597 38.3504 262.364 36.6236 273.478C36.6236 273.478 28.9542 247.228 14.3962 260.252C14.3962 260.252 0.517873 270.291 -8.9701 303.715L-12.5246 283.875L-9.83348 273.956L-0.88741 259.287L9.46395 249.478C9.46395 249.478 20.5684 245.069 22.2952 246.034L30.0564 249.588V249.597Z" fill="#FED6B1"/><path d="M65.5858 304.564C65.5858 304.564 49.5306 300.228 48.6121 288.453V264.224L52.4973 235.594L54.6833 224.876C54.6833 224.876 60.5066 211.007 57.301 202.511L53.2046 187.512V170.814L53.4434 154.96L57.4847 146.373L61.3424 140.807C61.3424 140.807 68.0933 130.299 67.7534 128.352C67.7534 128.352 74.6604 116.026 76.9934 115.052L87.4642 141.854L98.6881 156.118L115.579 167.048L136.052 180.981L141.15 192.334L145.485 201.583L147.102 211.209L131.184 218.189L136.787 246.065L127.363 241.969L110.188 233.473L81.1266 233.849L70.6099 287.82L65.5674 304.573L65.5858 304.564Z" fill="#C0814C"/><path d="M75.9193 116.321C75.9193 116.321 74.5783 130.328 94.3993 154.622C94.3993 154.622 108.36 169.538 115.038 173.405C116.112 174.03 117.187 174.645 118.225 175.316C123.35 178.641 135.456 187.173 140.902 196.79C140.902 196.79 148.351 211.927 147.607 215.086C147.607 215.086 150.886 199.922 149.692 195.89C149.692 195.89 166.978 171.596 169.063 164C169.063 164 171.626 155.651 173.619 151.931C173.619 151.931 179.865 142.526 174.831 125.093H137.724L105.715 117.497L97.5221 108.257L82.2752 104.5L79.4922 111.986L75.9193 116.312V116.321Z" fill="#2B0404"/><path d="M101.812 129.422C101.812 129.422 107.837 144.788 136.834 148.178C136.834 148.178 160.467 156.756 175.126 124.609H133.243L102.969 119.392L101.812 129.422Z" fill="black"/><path d="M178.244 23.527C178.244 23.527 184.472 21.3593 189.753 27.6785C189.753 27.6785 178.805 29.0012 178.244 23.527Z" fill="#040002"/><path d="M183.34 28.334C183.34 28.334 186.821 28.334 191.625 31.264C192.984 32.0906 194.417 32.8162 195.877 33.4591C197.522 34.1939 199.542 35.4431 199.763 37.1974L194.592 34.9471C194.592 34.9471 197.531 38.1802 199.322 39.5028C199.322 39.5028 199.9 39.8334 200.745 40.5039C206.78 45.2433 208.626 53.5924 205.365 60.5453C203.574 64.3479 200.874 69.5373 198.054 72.9265C198.054 72.9265 196.08 76.3433 192.47 80.2285C192.47 80.2285 196.925 86.3824 193.535 94.3824C193.535 94.3824 192.69 97.0736 190.633 100.472C190.633 100.472 192.47 89.193 190.495 86.7681C190.495 86.7681 187.345 94.658 184.176 96.7888L180.162 74.5063C180.162 74.5063 183.698 64.8622 183.845 64.4122C183.992 63.9621 186.04 50.0929 186.04 50.0929C186.04 50.0929 185.756 37.6383 185.682 37.427C185.609 37.2158 184.341 29.1514 184.341 29.1514L183.349 28.3524L183.34 28.334Z" fill="#040002"/><path d="M140 10.9306C140 10.9306 149.112 4.12462 164.9 8.23026C167.885 9.01097 171.008 11.7572 172.414 13.1166C173.654 14.3106 174.958 15.4312 176.363 16.4232C183.334 21.4014 187.018 20.042 187.018 20.042C187.018 20.042 184.74 22.3933 179.716 22.3107L165.497 15.569L156.634 13.3738L148.955 14.6137L139.082 16.166L123.467 16.9283L115.743 11.9501L108.615 13.4656L105.153 19.6287C105.153 19.6287 91.4765 31.4404 88.6108 32.2028C85.7451 32.9651 80.5924 35.5828 80.5924 35.5828L84.2204 37.4381L78.6544 42.5817L75.3662 56.4233L78.4064 68.8321L82.7968 77.4107L80.0413 80.5152C80.0413 80.5152 78.0574 84.0514 70.8381 84.9699C70.8381 84.9699 76.0734 82.2787 78.1951 78.4578C78.1951 78.4578 70.4799 69.5393 65.9517 57.0111C65.9517 57.0111 61.791 46.5312 78.3421 36.7677C78.3421 36.7677 73.5935 36.9146 71.83 38.1178C71.83 38.1178 73.0516 33.9203 84.6889 28.3727C84.6889 28.3727 83.7887 27.9961 82.0252 28.2074C82.0252 28.2074 86.5534 24.7355 91.155 21.9065C91.155 21.9065 88.822 20.7768 85.9196 21.484C85.9196 21.484 86.7003 19.9226 92.7164 19.7113C92.7164 19.7113 99.2285 15.6792 102.691 12.2808C102.691 12.2808 108.937 6.09936 121.502 6.47594C122.402 6.5035 123.302 6.51268 124.202 6.51268C127.013 6.51268 134.012 6.95356 140.028 10.9214L140 10.9306Z" fill="#040002"/><path d="M114.219 157.709C99.4776 151.069 79.5739 138.219 76.1755 116.368L78.6646 112.621L79.3535 112.694C79.3535 112.694 82.8437 111.849 82.8437 116.093C82.8437 116.093 83.2203 128.263 106.623 142.701C106.623 142.701 115.606 148.827 129.246 152.97C136.511 155.174 144.309 155.266 151.537 152.961C160.107 150.233 169.889 143.656 175.694 128.474C175.694 128.474 178.073 138.66 176.217 144.318C176.217 144.318 171.165 153.117 157.058 158.811C142.95 164.506 127.767 163.817 114.21 157.709H114.219Z" fill="#FFCA00"/><path d="M148.617 285.827C144.686 291.834 144.272 299.889 144.272 299.889C142.665 298.759 142.196 287.627 142.196 287.627C135.776 307.54 129.457 309.515 129.457 309.515C130.78 306.97 130.963 299.604 130.963 299.604C128.043 309.414 123.606 311.397 123.606 311.397C125.113 308.752 126.435 303.186 126.435 303.186C126.435 303.186 121.788 311.783 112.346 318.396C112.346 318.396 120.915 302.856 121.494 286.497C121.494 286.497 120.079 281.519 121.42 279.361L125.232 269.597L127.096 259.971C127.096 259.971 125.967 248.646 125.967 248.27C125.967 247.893 128.235 243.273 128.235 243.273L132.855 246.01L137.953 251.485L140.405 243.751L138.899 238.47L137.393 229.974L134.086 216.766L142.674 214.387L150.224 221.294C150.224 221.294 158.334 228.183 164.378 216.297C164.378 216.297 166.454 258.566 148.617 285.836V285.827Z" fill="#280B06"/><path d="M95.5863 194.494C95.5863 194.494 102.806 214.71 127.182 232.676C127.182 232.676 131.775 241.254 131.141 245.847H128.137L127.605 251.725V263.647L125.676 271.059L124.004 278.94L120.532 284.827C120.532 284.827 127.733 299.441 111.752 316.249L89.9651 329.356L82.1763 329.815L96.5691 295.023L86.4749 275.156L84.794 249.613L88.468 226.595L93.832 215.454L95.5128 204.001C95.5128 204.001 95.7608 197.672 95.5863 194.476V194.494Z" fill="#612D11"/><path d="M159.844 238.182C159.844 238.182 152.772 237.759 139.041 221.337C139.041 221.337 153.057 239.596 149.227 249.075C149.227 249.075 147.39 252.574 143.991 238.035C143.991 238.035 146.26 259.261 139.886 266.912C139.886 266.912 136.487 257.709 134.081 256.01C134.081 256.01 128.983 247.514 128.276 247.514C128.276 247.514 135.073 260.96 133.511 266.48C133.511 266.48 129.828 280.919 131.527 285.87L126.007 275.684C126.007 275.684 126.43 285.87 125.869 287.569C125.869 287.569 123.601 285.447 122.186 283.041C122.186 283.041 122.471 295.78 118.503 299.454C118.503 299.454 116.005 297.553 116.023 293.741C116.023 292.841 115.821 291.959 115.5 291.114L112.983 284.584C112.983 284.584 113.36 288.037 113.194 290.389C113.139 291.206 113.415 291.996 113.911 292.648C114.618 293.585 115.362 295.422 114.682 298.728C114.682 298.728 112.983 300.29 111.284 300.997C111.284 300.997 101.236 276.795 99.2516 273.681C99.2516 273.681 91.6098 259.665 90.6179 258.82C90.6179 258.82 99.8211 261.227 112.276 282.315C112.276 282.315 111.431 265.755 104.772 254.292C104.772 254.292 113.406 260.097 119.918 279.909C119.918 279.909 121.047 261.796 100.813 237.309C100.813 237.309 113.552 239.146 123.739 262.081C123.739 262.081 124.326 250.03 116.666 235.72C114.912 232.45 113.663 228.933 112.983 225.286C112.983 225.286 131.114 237.318 134.503 246.09C134.503 246.09 120.763 212.124 122.039 196.556C122.039 196.556 121.617 187.784 133.925 199.247C133.925 199.247 145.534 213.263 156.427 199.67C156.427 199.67 163.178 207.697 157.557 220.896C157.557 220.896 153.452 233.635 159.826 238.163L159.844 238.182Z" fill="#2B0404"/><path d="M54.1267 301.02C54.1267 301.02 76.7949 247.619 77.3552 215.16C77.3552 215.16 60.6663 227.045 55.3758 228.184C55.3758 228.184 84.6205 211.954 82.1038 186.291C82.1038 186.291 83.0039 172.891 78.8523 158.93C78.8523 158.93 92.3909 186.034 92.2623 200.069L95.5321 206.269L94.3105 212.147L89.2955 225.786L84.4276 255.105L79.6055 278.379L77.4011 300.68L76.5837 322.081L76.1795 331.311L72.1749 333.194L58.2874 329.383C58.2874 329.383 55.7065 317.681 55.7065 316.864C55.7065 316.046 54.1083 303.876 54.1083 303.876V301.029L54.1267 301.02Z" fill="#803D17"/><path d="M74.9533 116.906C74.9533 116.906 52.3218 160.901 56.5193 179.868C56.5193 179.868 59.2564 202.665 59.8074 212.52C59.8074 212.52 56.7029 243.721 53.2403 258.683C53.2403 258.683 57.254 249.195 59.2655 248.286C59.2655 248.286 52.1473 275.179 55.9774 290.105C55.9774 290.105 55.61 306.132 56.703 309.962C56.703 309.962 55.7569 326.109 73.2816 328.755L75.5779 329.829L78.5538 334.532L83.3666 342.725L82.5492 349.421L77.2955 353.361L65.3459 354.298L52.6432 353.673L44.2574 349.485L44.634 343.23L47.3252 337.976L48.8223 331.786L49.8235 324.465L50.4481 313.581L49.4469 303.138L46.1312 288.562L44.2574 278.054L43.6972 259.978L42.5123 242.399L43.5778 236.015L46.3883 228.695L52.3952 217.682L51.5778 207.606L47.9498 195.721L47.1323 187.335C47.1323 187.335 50.3195 165.319 52.3861 160.69C52.3861 160.69 41.254 171.197 31.5548 192.286L31.8028 180.842L33.1805 175.588L39.0588 164.768L47.1874 149.879L56.3815 138.802L63.1967 134.091L63.261 129.489L66.0164 125.172L73.4653 117.291L74.9257 116.933L74.9533 116.906Z" fill="#FEDEC5"/><path d="M77.8976 98.3801C77.8976 98.3801 76.8414 94.6419 79.7622 89.0391C80.9195 86.8072 82.6003 84.8967 84.5475 83.3169C85.7048 82.3801 87.3673 80.8921 89.4247 78.6418C89.8104 78.2285 89.9574 77.6131 89.7278 77.0896C89.4706 76.5201 88.7725 76.1619 86.9539 77.4018L82.0951 82.3892L81.1491 80.2216L81.4338 77.4018C81.4338 77.4018 75.7484 70.0448 71.8632 61.411C69.5027 56.1572 69.7415 50.0769 72.699 45.1354C74.2421 42.5544 76.6118 39.7806 80.203 37.0986C80.203 37.0986 76.621 35.1882 71.8081 38.109C71.8081 38.109 85.962 30.1089 88.5062 29.2639C88.5062 29.2639 95.4867 26.2421 97.7553 23.6061C97.7553 23.6061 95.2111 23.3213 83.978 28.7955C83.978 28.7955 84.226 28.6394 84.6577 28.373C89.9574 25.0848 95.055 21.4568 99.8495 17.4706C103.266 14.6324 108.07 11.0687 111.432 10.2972C111.432 10.2972 127.037 5.4843 139.712 13.2731C139.712 13.2731 157.292 3.00438 171.023 15.5693C171.023 15.5693 173.154 17.4981 176.754 20.0607C180.033 22.4028 183.064 25.0573 185.857 27.9597C189.393 31.6428 193.893 36.4832 196.226 39.551C197.081 40.6807 197.99 41.7554 198.918 42.83C201.802 46.1549 207.166 54.6142 199.055 65.1768C199.055 65.1768 193.884 75.519 187.712 79.4225C187.712 79.4225 184.35 79.2388 182.541 76.612C182.541 76.612 181.907 77.1539 186.077 82.5086C186.077 82.5086 191.698 89.3238 184.167 96.7544C184.167 96.7544 175.368 93.2274 173.898 87.4225C173.898 87.4225 173.567 95.2664 175.129 98.3525C175.129 98.3525 181.356 105.82 180.226 111.909C180.226 111.909 180.079 122.27 177.113 124.649C176.405 125.209 175.12 123.886 175.12 123.886C175.12 123.886 169.627 134.293 160.993 141.182C160.993 141.182 154.261 147.161 150.633 149.43C150.633 149.43 158.963 140.934 162.224 133.999C162.224 133.999 147.051 146.215 144.598 148.291C144.598 148.291 140.97 149.237 144.598 144.323C144.598 144.323 146.343 141.255 147.198 140.41C147.198 140.41 143.331 139.179 132.006 129.838C132.006 129.838 139.179 133.898 139.179 143.9C139.179 143.9 132.897 139.657 126.881 137.333C126.881 137.333 106.499 127.836 104.093 124.318C104.093 124.318 106.095 131.914 114.022 136.635C114.022 136.635 98.4167 135.808 90.4901 114.132V121.535C90.4901 121.535 81.5073 109.714 79.8081 101.512C79.8081 101.512 79.4499 99.9232 79.3856 97.8658L76.3454 107.097C76.3454 107.097 77.9711 101.861 77.9068 98.3525L77.8976 98.3801Z" fill="#DC9B67"/><path d="M137.104 26.9576C137.104 26.9576 138.39 37.8601 138.757 40.6155C138.757 40.6155 137.352 42.3331 134.22 43.2516L136.314 39.3847C136.636 38.7877 136.819 38.1172 136.838 37.4284L137.104 26.9484V26.9576Z" fill="#3E0400"/><path d="M180.771 32.5087C181.45 30.9473 182.883 29.6522 185.85 31.7831C187.007 32.6189 187.981 33.6936 188.743 34.906C189.901 36.7246 192.279 40.2883 195.292 43.751C199.471 48.5639 200.932 55.2137 198.966 61.2665C198.452 62.8555 197.744 64.5364 196.789 66.2815C196.789 66.2815 192.491 74.1621 188.192 78.9383C187.871 79.2873 187.393 79.4526 186.925 79.3791H186.879C185.575 79.1679 184.684 80.6283 185.455 81.6937C185.648 81.9601 185.859 82.2448 186.089 82.5387C186.098 82.5479 191.728 89.3172 184.178 96.7845C183.848 97.1794 180.376 95.2506 177.189 90.6398C172.495 83.8522 171.421 75.2 174.02 67.3745C176.977 58.4743 181.717 42.6304 180.422 36.0816C180.183 34.8784 180.284 33.6293 180.771 32.5087Z" fill="#6A330C"/><path d="M101.109 321.689C93.9819 326.089 89.2149 327.843 86.2941 328.404C83.8509 328.872 81.4169 327.522 80.5811 325.171C76.4938 313.625 80.7464 280.817 80.7464 280.817C83.6948 269.161 87.9198 243.287 87.9198 243.287C87.5341 227.407 95.2218 216.899 95.2218 216.899C100.733 200.89 92.1449 189.106 92.1449 189.106C94.7074 193.331 93.8073 204.61 93.8073 204.61C94.1931 211.398 87.9107 225.744 87.9107 225.744C86.5054 229.078 82.6569 249.441 82.6569 249.441C82.014 257.515 77.146 279.421 77.146 279.421C78.0461 294.925 73.27 328.753 73.27 328.753C83.8418 341.96 81.8762 346.461 81.8762 346.461C78.7441 353.993 71.1115 352.238 71.1115 352.238C70.7166 342.355 67.0059 338.25 67.0059 338.25C68.8612 345.102 68.9623 351.752 68.9623 351.752C68.2826 354.066 64.4433 353.726 62.1563 353.313C60.8337 353.074 59.7406 352.128 59.3641 350.842C58.0506 346.369 59.5661 338.351 59.5661 338.351C54.5788 345.589 55.8463 352.927 55.8463 352.927C43.7131 352.532 45.9633 345.589 45.9633 345.589C45.5684 342.163 51.3457 333.85 51.3457 333.85C50.7578 330.819 51.8325 321.423 51.8325 321.423C53.8899 312.909 48.5994 291.48 48.5994 291.48C46.9829 286.328 46.0827 272.624 45.7337 266.167C45.6419 264.468 45.6786 262.759 45.7521 261.06C46.0185 255.347 43.8049 243.535 43.8049 243.535C43.116 235.802 49.5822 226.415 49.5822 226.415C58.0966 215.549 55.9381 213.593 55.9381 213.593C54.5145 209.836 51.759 201.34 50.5558 197.611C50.271 196.72 49.9404 195.857 49.6373 194.975C47.1849 187.958 49.9771 167.411 49.9771 167.411C47.3319 172.399 45.5776 190.695 45.5776 190.695C45.2837 193.662 46.0827 199.007 46.9553 203.627C48.5259 211.921 47.8554 220.481 45.0816 228.454C43.6488 232.559 42.3445 235.71 42.3445 235.71C40.5534 240.073 41.3342 253.078 41.8761 259.747C42.0506 261.887 42.1333 264.027 42.0506 266.176C41.5362 278.833 47.7268 302.052 47.7268 302.052C50.4731 310.603 48.0024 318.916 45.8531 323.811C44.4938 326.906 41.6556 329.092 38.3123 329.579C32.4891 330.424 25.1321 330.048 20.0896 329.607C14.3031 329.092 8.8289 326.695 4.61304 322.7C1.03094 319.292 -1.20097 315.949 -1.20097 315.949C-15.3732 297.533 -9.0816 278.236 -7.16196 273.441C-6.86805 272.707 -6.61087 271.963 -6.36288 271.209C-4.41569 265.248 1.80248 258.204 5.66931 254.227C8.71869 251.095 12.7141 248.973 17.0494 248.449C30.3123 246.833 35.8875 260.279 35.8875 260.279C36.0804 255.485 34.519 253.134 34.519 253.134C25.9128 239.439 11.915 247.944 11.915 247.944C16.4156 240.018 20.4294 228.766 20.4294 228.766C25.5178 221.721 24.535 214.392 24.535 214.392C24.434 202.764 30.6981 194.029 30.6981 194.029C34.7119 189.822 32.3605 189.923 32.3605 189.923C30.2848 182.355 38.5052 167.806 42.6017 161.211C43.7682 159.328 44.9163 157.436 45.9725 155.498C52.9622 142.584 64.6546 134.64 64.6546 134.64C66.9049 133.271 67.1988 131.113 67.1988 131.113C66.3538 131.14 65.7567 131.103 65.3342 131.03C64.7556 130.938 64.4892 130.258 64.8474 129.79C66.0507 128.21 68.9715 124.38 69.0633 124.132C74.1609 119.788 80.8658 112.43 80.8658 112.43L82.4732 97.2387L81.4353 92.5912L84.0806 89.8816L86.8177 86.2995L90.9692 80.0722L91.9152 76.0216L88.8934 73.753L83.3274 78.1893C80.0208 84.4166 69.4031 97.9551 69.4031 97.9551C69.4031 97.9551 71.5983 99.2961 76.053 95.3374C76.053 95.3374 73.4812 101.868 73.371 105.762C73.3526 106.571 73.9313 107.269 74.7396 107.37C76.6224 107.59 79.7086 108.527 76.9715 112.394C76.9715 112.394 66.0047 122.653 63.8096 124.215C63.8096 124.215 58.3629 128.109 60.9806 130.8C60.9806 130.8 63.0288 132.003 60.2734 134.052C60.2734 134.052 49.0495 142.768 38.3307 161.138C33.8209 168.872 30.6062 177.294 28.9989 186.102C28.5672 188.49 28.1906 191.081 27.9334 193.781C27.9334 193.781 20.3835 202.865 21.4214 214.787C21.4581 215.218 21.5224 215.659 21.5775 216.091C21.7336 217.331 22.0092 221.023 20.3835 223.503C20.3835 223.503 17.031 231.081 13.5316 238.181C10.4914 244.334 6.58779 250.011 1.92188 255.044C0.920726 256.128 -0.126351 257.248 -1.13669 258.314C-6.42717 263.907 -10.3767 270.667 -12.3973 278.089C-13.9312 283.738 -14.5741 290.332 -12.5535 296.762C-12.3698 297.35 -12.1861 297.937 -12.0391 298.534C-11.635 300.151 -10.7716 303.559 -10.2756 304.826H-24.0529C-24.0529 304.826 -33.4858 286.713 -56.0439 283.407C-56.0439 283.407 -38.3262 289.405 -31.6856 299.976C-31.4284 300.381 -31.162 300.785 -30.8589 301.161C-29.6925 302.612 -26.6247 306.342 -25.5685 307.095H-10.193C-10.193 307.095 -6.98745 314.268 -5.28825 316.629C-5.28825 316.629 -30.6661 321.533 -70.3906 319.935C-70.3906 319.935 -70.2988 316.537 -58.0278 311.063C-58.0278 311.063 -49.8165 306.626 -46.1426 308.041C-46.1426 308.041 -47.2723 302.851 -63.7867 310.686C-63.7867 310.686 -87.2816 317.106 -103.419 316.629C-103.419 316.629 -128.705 316.537 -134.088 316.16C-134.088 316.16 -160.127 316.913 -165.133 319.843C-165.133 319.843 -133.426 319.559 -127.015 319.559C-127.015 319.559 -92.765 319.559 -89.3666 319.182C-89.3666 319.182 -90.4963 321.543 -91.4424 321.919C-91.4424 321.919 -89.9269 323.15 -86.0692 320.927C-84.2414 319.871 -82.3218 318.971 -80.3011 318.355C-78.1059 317.685 -75.4974 317.06 -73.8901 317.299C-73.8901 317.299 -76.0577 318.567 -76.82 320.266C-77.2426 321.212 -76.618 322.296 -75.5801 322.388C-72.8154 322.636 -66.2483 323.15 -60.6822 323.15C-60.6822 323.15 -18.5053 323.903 -2.93691 319.191C-2.93691 319.191 1.27894 324.546 5.46724 328.422C8.039 330.801 11.3547 332.215 14.8542 332.445C21.6418 332.886 35.4559 333.446 47.3503 331.738C47.3503 331.738 47.1941 336.257 44.6224 340.28C43.8416 341.501 43.1895 342.806 42.8221 344.211C41.9771 347.407 41.7567 352.284 47.6993 353.377C48.4341 353.515 49.1505 353.699 49.8761 353.901C52.3377 354.581 59.2998 355.82 74.712 354.489C77.1276 354.277 79.4881 353.506 81.4904 352.137C84.7235 349.905 87.7545 345.754 83.107 338.81C83.107 338.81 75.1804 330.599 81.6925 331.83C81.6925 331.83 113.794 330.158 123.401 331.885C124.834 332.142 126.276 332.298 127.736 332.335C134.184 332.463 149.725 332.335 153.858 328.404C153.858 328.404 150.983 316.583 135.81 314.792C133.881 314.562 131.934 314.562 129.996 314.7C125.357 315.03 114.427 316.013 112.223 318.025C112.223 318.025 123.364 309.446 126.184 303.935C126.184 303.935 103.36 320.33 101.073 321.745L101.109 321.689Z" fill="#010002"/><path d="M146.048 40.5276C146.048 40.5276 144.9 30.1395 146.13 24.9501C146.562 23.1223 148.399 21.9926 150.236 22.3967C153.111 23.0305 158.025 25.143 161.368 32.1051C161.368 32.1051 152.771 24.9593 150.227 25.8043C150.227 25.8043 146.479 25.3634 146.048 40.5185V40.5276Z" fill="#F7DABD"/><path d="M131.63 40.5276C131.63 40.5276 132.778 30.1395 131.547 24.9501C131.115 23.1223 129.278 21.9926 127.442 22.3967C124.567 23.0305 119.653 25.143 116.309 32.1051C116.309 32.1051 124.906 24.9593 127.451 25.8043C127.451 25.8043 131.198 25.3634 131.63 40.5185V40.5276Z" fill="#F7DABD"/><path d="M114.993 124.108L105.285 119.433L102.658 112.627L91.7923 100.053V91.1158L93.7395 87.7908L101.914 78.4498C103.696 77.3201 103.558 56.847 103.558 56.847C102.897 45.7149 111.714 43.2809 111.714 43.2809C111.714 43.2809 108.16 49.5175 111.65 52.8148C111.65 52.8148 119.76 62.2936 123.811 73.8023L152.881 77.761C156.941 66.2523 165.06 56.7735 165.06 56.7735C168.55 53.467 165.134 43.7769 165.134 43.7769C165.134 43.7769 172.399 47.1937 171.737 58.335C171.737 58.335 170.24 81.3614 172.022 82.4912L173.905 89.6737L174.879 97.7932L171.737 101.77L172.628 115.107L171.829 119.552L168.339 128.902C168.339 128.902 145.175 140.328 142.612 144.572C142.612 144.572 120.311 124.934 114.993 124.089V124.108Z" fill="#7F3F11"/><path d="M124.911 62.9705C123.901 66.1485 122.064 69.005 121.054 72.183C119.198 78.0153 117.095 86.5205 118.188 92.5642L122.872 98.369L132.25 97.772L138.753 95.9075L150.574 98.3782L157.325 94.6032L161.357 82.6078C161.357 82.6078 158.409 72.3575 155.12 66.9384C153.945 65.0004 152.861 63.0073 151.979 60.9131C151.401 59.5538 150.776 58.0107 150.225 56.486C148.333 51.2506 143.41 47.5859 137.844 47.6777C137.623 47.6777 137.394 47.6869 137.173 47.7053C132.81 48.0176 129.109 51.021 127.612 55.1266C126.804 57.3494 125.747 60.3253 124.902 62.9705H124.911Z" fill="url(#paint0_linear_332_7133)"/><path d="M135.93 86.1676C135.93 86.1676 128.334 83.7887 125.735 78.2135C124.375 75.3019 124.899 71.7841 127.305 69.6532C127.893 69.1296 128.61 68.6704 129.473 68.3673C130.125 68.1377 130.823 68.055 131.512 68.055H145.335C146.465 68.055 147.595 68.2203 148.651 68.6153C150.607 69.3501 153.014 71.0033 152.793 74.714C152.711 76.1377 152.224 77.5062 151.48 78.7278C150.414 80.4638 148.357 83.2284 145.161 85.0929C143.186 86.241 140.936 86.8748 138.649 86.7462C137.767 86.7003 136.812 86.535 135.93 86.1676Z" fill="#010002"/><path d="M130.605 74.1125C130.605 74.1125 134.196 68.2526 145.925 71.2285C145.925 71.2285 147.331 71.6051 148.35 72.7991C149.636 74.2962 148.176 76.4914 146.302 75.8944C145.393 75.6097 144.244 75.0677 142.802 74.1125C142.802 74.1125 137.503 70.4202 130.605 74.1125Z" fill="white"/><path d="M109.53 68.055C109.53 68.055 111.734 70.1491 113.415 79.4259C114.205 83.7611 115.95 87.9035 118.687 91.357C120.533 93.69 122.829 95.7658 125.383 96.2985C125.383 96.2985 128.745 97.1251 136.533 92.8082C138.003 91.9908 139.776 91.9173 141.309 92.6153C144.497 94.0574 150.237 96.1056 154.545 94.5993C154.545 94.5993 160.203 92.5694 159.927 77.4144C159.927 77.4144 156.813 71.2421 156.18 68.7714L160.414 74.7508C161.985 76.9643 162.664 79.6922 162.297 82.3742C161.737 86.4615 160.386 92.597 157.163 97.2078C156.152 98.659 155.326 100.23 154.683 101.883C152.588 107.228 146.196 118.25 130.214 112.583C130.214 112.583 118.035 104.17 112.506 89.6486C112.304 89.1159 112.102 88.5832 111.872 88.0597C111.165 86.4431 109.006 80.4178 109.539 68.0642L109.53 68.055Z" fill="#040004"/><path d="M125.457 100.046C125.457 100.046 139.749 96.2983 150.578 100.046C150.578 100.046 150.927 105.998 145.324 109.001C137.444 113.226 127.607 108.964 125.513 100.275C125.494 100.202 125.476 100.128 125.457 100.046Z" fill="url(#paint1_linear_332_7133)"/><path d="M159.38 14.8459C159.38 14.8459 180.229 27.5853 174.287 48.7197C174.287 48.7197 170.576 63.4982 171.733 73.1055C171.88 74.3271 172.055 75.5487 172.165 76.7795C172.486 80.4718 174.654 90.6946 188.064 101.092C188.064 101.092 186.649 103.131 175.233 92.5775C175.233 92.5775 179.099 105.896 188.44 114.153C188.44 114.153 183.058 113.354 181.368 111.278C181.368 111.278 183.912 118.828 183.067 122.502C183.067 122.502 180.707 121.657 180.045 116.936C180.045 116.936 180.799 123.824 178.438 127.223C178.438 127.223 175.095 128.646 175.738 123.475C175.738 123.475 182.002 110.166 173.607 98.3823C173.607 98.3823 173.047 88.3249 169.014 81.0505C168.895 80.83 168.812 80.5912 168.794 80.3432C168.794 80.3157 168.794 80.2881 168.794 80.2606C168.013 71.4798 168.592 62.644 170.42 54.0194C171.494 48.931 172.578 40.2237 169.74 32.6002C169.74 32.6002 164.468 19.5026 159.389 14.8459H159.38Z" fill="#040002"/><path d="M115.738 15.58C115.738 15.58 107.205 17.7935 100.271 33.1874C100.105 33.5456 99.9308 33.9038 99.7563 34.262C99.0307 35.6673 96.8539 40.7924 98.9205 48.3975C99.8482 51.8235 100.519 55.3137 100.767 58.8591C100.987 62.0738 101.097 65.9957 100.803 69.8717C100.454 74.4091 98.6909 78.7627 95.5313 82.0325C95.1639 82.4091 94.7781 82.7857 94.3556 83.1439C94.3556 83.1439 89.8826 87.1301 90.2133 92.5767C90.2133 92.5767 91.5634 91.9705 93.5106 90.5836C100.473 85.5962 104.679 77.6238 105.084 69.0727C105.276 64.9211 105.129 59.6214 103.954 54.0829C103.954 54.0829 99.8574 39.828 105.157 30.6707C105.405 30.239 105.671 29.8165 105.91 29.3756C107.178 27.0519 111.908 18.6569 115.747 15.5891L115.738 15.58Z" fill="#040002"/><path d="M86.7192 95.9671C99.3024 116.587 115.018 119.425 115.018 119.425C100.34 109.845 101.801 94.2771 101.801 94.2771C98.9442 96.5642 95.9408 102.452 95.9408 102.452C95.9408 102.452 93.1119 90.2725 95.0223 77.7535C95.0223 77.7535 86.6089 88.4631 86.71 95.9212L86.7284 95.958L86.7192 95.9671Z" fill="#C58359"/><path d="M143.45 145.538C143.524 145.41 143.625 145.226 143.763 145.006C145.471 142.168 147.804 139.761 150.541 137.915C152.709 136.455 155.639 134.351 158.651 131.807C159.377 131.192 160.121 130.585 160.874 130.016C163.06 128.372 170.096 122.025 169.811 108.569C169.793 107.559 169.802 106.539 169.829 105.529C169.884 103.527 169.866 99.7977 169.196 95.4165C169.196 95.4165 184.093 100.56 175.653 124.367C175.653 124.367 168.718 136.427 159.726 143.545C159.092 144.05 158.431 144.5 157.751 144.941C155.933 146.117 150.146 150.213 148.787 151.013C148.787 151.013 159.478 138.87 160.598 136.39C160.598 136.39 150.706 144.363 149.31 145.171L145.563 148.239C145.159 148.569 144.589 148.597 144.075 148.68C143.313 148.799 141.788 148.073 143.156 146.071L143.45 145.538Z" fill="url(#paint2_linear_332_7133)"/><path d="M139.542 144.588C139.542 144.588 131.652 139.435 127.014 137.736C127.014 137.736 107.046 129.056 104.888 125.575C104.888 125.575 108.635 133.483 115.193 137.019C114.798 137.662 95.666 134.659 90.8256 115.756L90.844 122.544C90.844 122.544 79.8773 110.723 79.1149 99.7839L76.5983 107.224L76.0472 107.04C76.0472 107.04 75.2297 89.8735 84.4789 81.8275C84.4789 81.8275 81.7693 89.1203 87.4088 97.1663C87.4088 97.1663 88.4192 98.5256 90.2011 100.675C101.205 113.947 115.616 123.986 131.854 129.782C131.854 129.782 142.656 136.845 139.524 144.597L139.542 144.588Z" fill="url(#paint3_linear_332_7133)"/><path d="M94.773 79.6504C94.0658 80.9638 93.0646 82.1028 92.3298 83.3978C90.3092 86.9707 86.874 93.5471 86.3413 97.7722C86.3413 97.7722 82.9245 87.8892 82.2173 83.7652C82.0244 82.6171 81.7121 81.4966 81.2437 80.4311L81.1518 80.2199C81.3264 78.4564 80.8763 76.6837 79.8568 75.2233C77.8545 72.3668 74.3458 67.0028 71.7282 61.0878C69.533 56.1279 69.7442 50.3966 72.3987 45.6664C73.9325 42.9293 76.3757 39.9717 80.215 37.0969C80.215 37.0969 76.688 36.5917 71.82 38.1072C83.145 28.904 94.9567 30.4287 94.9567 30.4287C94.9567 30.4287 91.393 44.8214 96.1599 53.3174C96.1599 53.3174 101.643 66.8742 94.773 79.632V79.6504Z" fill="#6A330C"/><path d="M122.326 44.4642C123.207 45.8235 126.652 47.2472 126.652 47.2472C127.258 43.5641 126.927 40.8913 126.165 38.9532C124.392 34.4251 118.551 33.2035 114.959 36.4825C112.434 38.7879 110.44 42.0302 109.586 43.5457C109.237 44.1611 109.522 44.9877 110.211 45.1622C111.359 45.4653 112.14 43.61 112.14 43.61C112.14 43.61 113.517 47.982 117.779 47.6789C117.779 47.6789 120.948 47.5595 122.335 44.4642H122.326Z" fill="#040002"/><path d="M117.881 40.5283C117.881 40.5283 122.575 41.4468 121.454 44.5145C121.133 45.3963 120.444 46.0851 119.608 46.5076C118.093 47.27 115.356 47.8394 113.206 43.8165C113.206 43.8165 113.206 43.8165 113.206 43.7981C113.078 42.5949 114.658 42.053 115.31 43.0725C115.907 44.0002 116.88 45.0381 118.185 44.9187C118.185 44.9187 118.185 44.9187 118.203 44.9187C119.728 45.0472 120.416 42.9439 119.075 42.1999C118.726 42.0071 118.249 41.8509 117.624 41.7958C117.624 41.7958 116.706 40.5558 117.872 40.5191L117.881 40.5283Z" fill="white"/><path d="M153.605 44.4642C152.724 45.8235 149.279 47.2472 149.279 47.2472C148.673 43.5641 149.004 40.8913 149.766 38.9532C151.539 34.4251 157.38 33.2035 160.972 36.4825C163.497 38.7879 165.491 42.0302 166.345 43.5457C166.694 44.1611 166.409 44.9877 165.72 45.1622C164.572 45.4653 163.791 43.61 163.791 43.61C163.791 43.61 162.414 47.982 158.152 47.6789C158.152 47.6789 154.983 47.5595 153.596 44.4642H153.605Z" fill="#040002"/><path d="M158.042 40.5283C158.042 40.5283 153.349 41.4468 154.469 44.5145C154.791 45.3963 155.479 46.0851 156.315 46.5076C157.831 47.27 160.568 47.8394 162.717 43.8165C162.717 43.8165 162.717 43.8165 162.717 43.7981C162.846 42.5949 161.266 42.053 160.614 43.0725C160.017 44.0002 159.043 45.0381 157.739 44.9187C157.739 44.9187 157.739 44.9187 157.721 44.9187C156.196 45.0472 155.507 42.9439 156.848 42.1999C157.197 42.0071 157.675 41.8509 158.299 41.7958C158.299 41.7958 159.218 40.5558 158.051 40.5191L158.042 40.5283Z" fill="white"/><path d="M136.194 178.159L132.18 162.287C130.123 158.659 132.768 154.159 136.938 154.186L145.076 154.25C149.246 154.287 151.827 158.824 149.705 162.425L145.581 178.232C143.468 181.833 138.242 181.787 136.185 178.159H136.194Z" fill="#FFCA00"/><path d="M141.08 167.585C144.306 167.585 146.922 164.97 146.922 161.743C146.922 158.517 144.306 155.902 141.08 155.902C137.854 155.902 135.239 158.517 135.239 161.743C135.239 164.97 137.854 167.585 141.08 167.585Z" fill="#2A354B"/><path d="M141.078 176.719C143.117 176.719 144.77 175.066 144.77 173.027C144.77 170.988 143.117 169.335 141.078 169.335C139.039 169.335 137.386 170.988 137.386 173.027C137.386 175.066 139.039 176.719 141.078 176.719Z" fill="#2A354B"/><path d="M83.2774 142.836C88.6046 155.685 98.3865 166.57 110.125 173.899C116.095 177.601 122.166 181.311 127.751 185.61C132.6 189.403 137.661 193.334 140.922 198.652C141.335 199.442 141.702 200.26 141.895 201.123C140.545 197.853 137.716 195.557 135.117 193.298C126.961 186.629 117.95 181.302 108.922 175.81C96.9812 168.25 86.9973 156.613 83.2774 142.836Z" fill="#8C4825"/><path d="M172.778 156.012C173.421 164.646 170.068 173.353 164.75 180.085C160.69 185.054 156.612 189.932 153.278 195.397C152.204 197.206 151.147 199.107 150.973 201.247C150.817 199.071 151.799 197.004 152.69 195.075C155.584 189.316 159.653 184.209 163.676 179.231C168.902 172.655 172.337 164.453 172.787 156.012H172.778Z" fill="#8C4825"/></g><path d="M4.86799 124.88C7.5565 124.88 9.73596 122.701 9.73596 120.012C9.73596 117.324 7.5565 115.144 4.86799 115.144C2.17947 115.144 0 117.324 0 120.012C0 122.701 2.17947 124.88 4.86799 124.88Z" fill="#26324A"/><path d="M4.45396 136.604C6.53375 136.604 8.21976 134.918 8.21976 132.838C8.21976 130.759 6.53375 129.073 4.45396 129.073C2.37417 129.073 0.688171 130.759 0.688171 132.838C0.688171 134.918 2.37417 136.604 4.45396 136.604Z" fill="#26324A"/><path d="M194.724 17.1308C194.724 17.1308 196.276 18.1319 199.004 19.8862C199.674 20.3363 200.455 20.7863 201.245 21.365C202.035 21.9345 202.88 22.559 203.789 23.2203C204.699 23.8816 205.663 24.5797 206.673 25.3237C207.647 26.1228 208.666 26.9678 209.741 27.8403C210.274 28.2812 210.816 28.7221 211.376 29.1813C211.394 29.1997 211.422 29.2181 211.44 29.2364C211.881 29.613 212.588 30.2376 213.02 30.6142C214.113 31.6245 215.243 32.6716 216.4 33.737C217.585 34.7749 218.678 35.9873 219.826 37.163C220.396 37.76 220.983 38.357 221.562 38.9632C221.856 39.2663 222.15 39.5694 222.444 39.8817C222.729 40.194 223.004 40.5246 223.28 40.8553C224.391 42.1595 225.53 43.4822 226.678 44.8232C227.266 45.4753 227.78 46.2101 228.322 46.9081C229.388 48.3134 230.471 49.7279 231.555 51.1515L231.583 51.1883C232.088 51.9414 232.593 52.6946 233.098 53.4477C233.603 54.2009 234.109 54.9541 234.623 55.7072C235.45 56.938 236.322 58.1412 236.818 59.5924C237.268 60.3088 237.7 61.0069 238.15 61.7233C239.032 62.7153 239.528 63.9369 240.143 65.0758C240.556 65.8749 240.96 66.674 241.374 67.4639C241.778 68.2538 242.182 69.0437 242.586 69.8336C242.944 70.6418 243.293 71.4501 243.652 72.2492C244.341 73.8565 245.084 75.4088 245.7 76.9886C246.848 80.1757 248.097 83.2067 248.905 86.201C249.346 87.689 249.806 89.1218 250.2 90.5179C250.54 91.9324 250.862 93.3009 251.174 94.6144C251.33 95.2665 251.486 95.9094 251.633 96.534C251.707 96.8463 251.78 97.1586 251.854 97.4617C251.909 97.7739 251.964 98.077 252.01 98.3801C252.221 99.5926 252.423 100.741 252.607 101.815C252.791 102.89 252.974 103.9 253.13 104.828C253.231 105.765 253.314 106.454 253.397 107.234C253.424 107.446 253.443 107.657 253.47 107.859C253.718 110.109 255.766 111.735 258.017 111.469C260.368 111.193 261.985 108.989 261.562 106.665C261.516 106.444 261.479 106.206 261.434 105.967C261.277 105.149 261.121 104.323 260.938 103.34C260.699 102.366 260.442 101.347 260.157 100.217C259.872 99.0874 259.578 97.9117 259.266 96.6534C259.183 96.3411 259.11 96.0288 259.027 95.7073C258.926 95.3859 258.825 95.0736 258.724 94.7429C258.522 94.0908 258.311 93.4295 258.099 92.7406C257.668 91.3813 257.227 89.9668 256.758 88.4972C256.235 87.0552 255.647 85.5764 255.068 84.0517C253.985 80.9748 252.451 77.8795 251.009 74.6464C250.246 73.0483 249.355 71.4685 248.52 69.8519C248.097 69.0437 247.665 68.2354 247.234 67.4179C246.756 66.628 246.279 65.8381 245.792 65.0391C245.314 64.2492 244.827 63.4501 244.341 62.651C243.845 61.8611 243.394 61.0345 242.843 60.2721C241.778 58.7291 240.703 57.1768 239.638 55.6337C239.124 54.8439 238.526 54.1182 237.948 53.3743C236.8 51.9047 235.661 50.4443 234.522 48.9839L234.494 48.9472C233.879 48.2491 233.264 47.5511 232.657 46.853C232.051 46.1641 231.436 45.4753 230.839 44.7864C230.223 44.1067 229.654 43.3995 229.002 42.7749C227.734 41.489 226.476 40.2215 225.245 38.9724C224.933 38.6601 224.639 38.3478 224.317 38.0447C223.996 37.7508 223.675 37.4661 223.353 37.1722C222.71 36.5935 222.076 36.024 221.452 35.4638C220.193 34.3432 218.999 33.2043 217.723 32.2307C216.474 31.2295 215.252 30.2559 214.076 29.3099L212.386 28.0424C212.386 28.0424 212.331 28.0057 212.304 27.9873C211.707 27.5648 211.128 27.1515 210.559 26.7473C209.42 25.9391 208.336 25.1675 207.298 24.4327C206.223 23.7622 205.195 23.1193 204.23 22.5223C203.275 21.9253 202.375 21.365 201.539 20.8415C200.712 20.3179 199.904 19.9321 199.197 19.528C196.359 17.9758 194.733 17.0848 194.733 17.0848L194.724 17.1308Z" fill="#26324A"/><path d="M259.132 124.88C261.821 124.88 264 122.701 264 120.012C264 117.324 261.821 115.144 259.132 115.144C256.443 115.144 254.264 117.324 254.264 120.012C254.264 122.701 256.443 124.88 259.132 124.88Z" fill="#26324A"/><path d="M259.544 136.604C261.624 136.604 263.31 134.918 263.31 132.838C263.31 130.759 261.624 129.073 259.544 129.073C257.464 129.073 255.778 130.759 255.778 132.838C255.778 134.918 257.464 136.604 259.544 136.604Z" fill="#26324A"/><path d="M29.9793 198.789C21.1434 198.789 10.8472 193.306 8.44994 177.903C8.10092 175.689 7.85292 173.632 7.66922 171.602C7.44879 169.783 7.23755 168.057 6.962 166.284C6.64053 164.245 6.22721 162.022 5.89655 160.213C5.41894 157.99 5.0148 155.795 4.65659 153.517C4.26164 151.01 4.64741 148.419 5.72204 146.233C7.25591 143.12 10.0665 141.035 13.4373 140.511C14.0343 140.419 14.6314 140.373 15.2008 140.373C18.8472 140.373 21.0424 142.238 22.1446 143.45C22.2181 143.45 22.2916 143.45 22.3742 143.45C22.9988 143.45 23.7611 143.395 24.6429 143.294L42.6728 141.182C42.8932 141.154 43.0861 141.127 43.2606 141.108C44.8496 136.681 48.2756 135.212 51.0126 134.789C51.5454 134.706 52.0873 134.66 52.6292 134.66C58.7831 134.66 62.7968 139.786 63.5867 144.846C63.8439 146.518 64.046 148.153 64.2297 149.742C64.3215 150.486 64.4042 151.23 64.5052 151.974L64.5236 152.167C64.7624 154.481 64.9737 156.631 65.3043 158.716C65.488 159.882 65.7819 161.095 66.1034 162.38L66.1401 162.537L66.1769 162.711C66.2687 163.143 66.3606 163.584 66.4524 164.025C66.682 165.081 66.9117 166.183 67.0954 167.349C68.1884 174.367 67.2974 180.116 64.4501 184.452C61.8967 188.328 57.837 190.881 52.9966 191.634C52.0781 191.781 51.1321 191.855 50.186 191.855C48.3215 191.855 46.5121 191.579 44.8129 191.056C42.2962 194.684 38.3926 197.733 33.3042 198.523C32.2112 198.697 31.0907 198.78 29.9793 198.78V198.789Z" fill="#2A354B"/><path d="M58.9534 253.444C55.7754 253.444 50.834 252.112 45.3506 245.775C41.5481 241.375 40.0693 237.334 39.9591 233.632C35.6606 232.796 31.7937 229.242 27.4585 224.227C26.3287 222.923 23.9958 220.213 22.3333 217.164C17.5296 208.3 22.2874 203.166 23.858 201.807C25.6399 200.264 27.7708 199.455 30.0303 199.455C31.3253 199.455 32.3999 199.722 33.1623 199.951C33.3552 199.814 33.594 199.63 33.8971 199.373L47.4631 187.634C47.8765 187.276 48.1887 186.982 48.4276 186.743C47.6009 182.335 49.6491 179.432 51.6239 177.724C53.5435 176.061 55.8765 175.189 58.384 175.189C62.3151 175.189 66.1544 177.329 69.8007 181.545C70.5264 182.381 71.1417 183.198 71.6928 183.924C71.9316 184.245 72.1796 184.567 72.4276 184.888L72.547 185.044L72.6572 185.2C73.3369 186.174 73.9523 187.028 74.531 187.699C75.6699 189.021 76.965 190.335 78.3243 191.731L78.5631 191.979C78.9948 192.447 79.4449 192.925 79.8857 193.393C80.8593 194.431 81.8697 195.506 82.8525 196.645C86.3243 200.659 88.6297 205.343 89.337 209.843C90.3473 216.209 88.244 222.004 83.4311 226.165C80.8318 228.415 77.7365 229.876 74.5126 230.399C74.0074 234.78 71.702 238.372 69.0935 241.467C70.3886 246.39 67.4494 249.641 65.9798 250.918C64.0786 252.562 61.5803 253.472 58.9534 253.472V253.444Z" fill="#2A354B"/><path d="M107.925 274.021C104.637 274.021 101.064 273.515 97.2888 272.514C87.3691 269.878 80.5355 265.121 76.9626 258.36C73.8581 252.491 73.4999 245.401 75.9431 238.402L79.2956 225.773C78.1658 224.156 76.4023 221.107 77.4586 217.01C78.0464 214.549 80.3335 208.973 89.1693 208.973C91.9523 208.973 95.314 209.506 99.4564 210.608C105.234 212.142 108.944 213.722 111.479 215.715C112.655 216.643 113.61 217.699 114.317 218.838C115.934 217.855 118.111 217.166 121.022 217.166C124.21 217.166 127.397 218.02 129.114 218.471L129.335 218.526C130.694 218.884 133.532 219.637 136.095 220.978C144.104 225.157 143.112 231.568 142.616 233.433C141.698 236.895 139.438 239.21 135.911 240.312L131.87 255.522C128.747 267.279 120.021 274.011 107.925 274.011V274.021ZM105.72 244.62C104.875 247.798 105.27 249.093 105.353 249.323C105.463 249.607 106.143 249.828 106.538 249.929C107.319 250.14 107.842 250.177 108.145 250.177C108.412 250.177 108.54 250.14 108.568 250.131C108.568 250.122 108.797 249.846 108.981 249.13L112.83 234.636C112.251 234.103 111.746 233.543 111.323 232.964C110.524 233.46 109.596 233.864 108.503 234.14L105.72 244.611V244.62Z" fill="#2A354B"/><path d="M148.923 276.074C143.734 276.074 139.638 273.447 137.975 269.047C136.276 264.538 138.021 261.213 139.224 259.514C138.756 257.704 137.957 255.279 137.02 252.79C135.504 248.776 134.072 244.974 132.17 241.539C127.945 241.006 125.089 238.829 123.674 235.082C122.692 232.482 122.783 229.663 123.931 227.137C126.127 222.306 131.353 219.798 136.68 217.814L137.066 217.667C139.261 216.841 141.272 216.152 143.688 216.152C146.104 216.152 148.152 216.859 150.209 217.649L155.087 219.477C154.986 217.833 155.289 216.188 155.987 214.655C158.265 209.64 163.858 207.545 166.862 206.425L167.606 206.14C169.645 205.35 173.061 204.037 176.588 204.037C181.502 204.037 185.415 206.627 187.05 210.953C188.437 214.636 187.913 218.053 185.47 221.139C185.883 222.645 186.683 224.785 187.004 225.63L192.763 240.887L192.974 241.438C194.903 246.416 196.777 252.156 194.545 257.125C193.443 259.587 191.449 261.47 188.933 262.425C187.73 262.884 186.444 263.114 185.121 263.114C183.073 263.114 181.309 262.554 180.17 262.131L169.58 258.026C170.848 262.508 169.149 267.063 164.914 270.37C163.068 271.812 160.671 273.098 157.778 274.182C154.48 275.431 151.486 276.055 148.905 276.055L148.923 276.074Z" fill="#2A354B"/><path d="M205 237.903C198.855 237.903 192.82 235.965 187.557 232.3C173.459 222.491 170.602 203.9 180.926 189.058C186.97 180.369 195.952 175.583 206.221 175.583C212.678 175.583 219.365 177.549 224.104 180.856C231.103 185.724 235.42 193.127 236.274 201.696C237.055 209.522 234.905 217.54 230.221 224.272C224.205 232.925 215.011 237.894 205 237.894V237.903Z" fill="#2A354B"/><path d="M219.747 186.461C219.15 186.461 218.562 186.397 217.974 186.278C214.971 185.644 213.281 183.586 212.216 182.089C210.544 183.017 208.294 183.844 205.455 183.853C204.399 183.853 203.315 183.733 202.222 183.504C194.149 181.814 189.134 174.227 190.806 166.218C192.248 159.348 198.392 154.544 205.759 154.544C206.898 154.544 208.046 154.663 209.166 154.893C213.924 155.885 219.031 158.907 223.191 163.187C226.03 166.108 230.604 171.922 229.318 178.048C228.464 182.126 224.817 186.452 219.747 186.452V186.461Z" fill="#2A354B"/><path d="M236.209 168.617C233.738 168.617 231.561 167.892 229.862 166.615C228.09 167.377 226.041 167.901 223.662 168.029C223.304 168.048 222.955 168.057 222.606 168.057C212.999 168.057 205.596 160.489 205.008 150.064C204.907 148.337 205.045 146.674 205.192 145.122L205.21 144.893C205.21 144.893 205.311 144.24 205.339 144.075C205.008 143.23 204.539 141.935 204.448 140.328C203.979 132.19 213.862 126.633 219.391 126.312C219.594 126.302 219.786 126.293 219.979 126.293C222.119 126.293 224.122 126.964 225.784 128.103C227.952 126.596 230.643 125.54 234.032 125.347C234.344 125.329 234.657 125.32 234.969 125.32C244.347 125.32 251.869 133.329 252.475 143.947C252.595 146.096 252.393 148.557 252.292 149.65L252.218 150.716C252.181 151.221 252.154 151.662 252.136 151.983C252.136 151.993 252.163 152.094 252.163 152.094C252.273 152.608 252.457 153.416 252.512 154.417C252.631 156.576 252.439 159.809 249.279 162.904C246.689 165.494 241.6 168.314 237.008 168.571C236.742 168.59 236.475 168.59 236.218 168.59L236.209 168.617Z" fill="#2A354B"/><path d="M47.294 185.847C46.7062 185.369 46.2469 184.864 45.4387 184.993C44.6304 185.121 44.4834 185.838 44.2722 186.508C43.6752 189.209 41.0666 194.141 35.8405 194.958C29.6223 195.932 21.3192 192.956 19.372 180.456C19.0413 178.343 18.8025 176.405 18.6372 174.522C18.4076 172.648 18.1779 170.775 17.8748 168.846C17.5442 166.733 17.1401 164.566 16.7543 162.462C16.3042 160.368 15.9093 158.265 15.5694 156.088C15.2663 154.159 16.0471 151.808 18.2239 151.468C22.0815 150.862 18.7933 155.519 29.1722 154.279L47.193 152.175C56.6442 151.082 51.519 146.407 55.8084 145.737C58.1689 145.369 59.6844 147.739 59.9875 149.668C60.3457 151.973 60.5845 154.288 60.8784 156.602C61.1172 158.926 61.3468 161.241 61.7051 163.546C61.9347 165.043 62.2837 166.449 62.6327 167.863C62.9175 169.287 63.2757 170.756 63.4961 172.189C65.2688 183.569 60.3181 187.335 55.5236 188.079C52.6671 188.529 49.4341 187.822 47.2756 185.856L47.294 185.847ZM32.0379 169.691C24.8278 170.811 24.8186 172.024 25.1217 173.953C25.6728 177.498 28.2905 178.361 31.5236 177.856C35.3169 177.268 38.5041 175.624 37.8244 171.271C37.5213 169.342 36.465 169.066 35.1424 169.204L32.0379 169.691ZM47.2113 167.321C44.7865 167.698 43.5833 167.762 43.8864 169.691C44.4651 173.42 47.2113 173.888 50.6373 173.356C53.4387 172.924 56.7728 171.445 56.2401 168.019C55.8819 165.714 54.0541 166.256 52.2538 166.54L47.2205 167.321H47.2113Z" fill="#FFCA03"/><path d="M55.9403 196.869C63.3157 190.485 57.1435 189.503 60.0918 186.949C62.7095 184.68 66.2549 188.106 67.899 190.017C68.7624 191.018 69.488 192.047 70.3054 193.094C71.031 194.132 71.8026 195.206 72.6292 196.162C73.9426 197.686 75.3571 199.128 76.8175 200.616C78.186 202.095 79.6373 203.583 80.9507 205.108C85.6074 210.49 88.62 218.784 82.2825 224.258C79.426 226.729 75.4673 227.739 71.876 226.178C71.2698 225.957 70.8381 225.746 70.2687 226.242C69.5523 226.857 69.9013 227.647 70.1585 228.419C71.8026 232.818 70.8933 236.189 66.3284 241.305C62.3972 245.705 67.7337 246.495 64.8312 249.002C63.0218 250.564 59.2285 250.022 54.5717 244.639C47.9862 237.025 51.5407 232.286 56.5465 225.369C58.2824 222.954 59.7244 220.29 57.465 217.673C56.5557 216.625 56.0872 216.368 53.0838 218.958C51.7061 220.152 49.8783 221.898 48.7577 223.284C46.8932 225.562 49.667 227.408 47.38 229.383C45.6624 230.862 43.3478 230.789 36.6796 223.073C34.7049 220.786 28.8541 214.026 32.3352 211.023C34.8059 208.883 36.1836 213.934 42.3742 208.58L55.9403 196.841V196.869ZM63.3984 209.728C62.0758 210.701 60.8266 211.372 62.186 212.942C64.8588 216.038 67.4397 215.551 70.3881 212.997C72.721 210.977 74.6039 208.35 72.2159 205.585C70.6912 203.822 69.6349 204.823 68.0827 205.999L63.3984 209.718V209.728Z" fill="#FFCA03"/><path d="M123.839 239.365C125.566 232.853 119.669 233.965 120.606 230.428C121.607 226.653 128.633 228.656 131.122 229.317C133.437 229.932 140.124 231.705 139.187 235.232C138.287 238.64 134.273 235.361 132.803 240.899L128.44 257.322C127.715 260.059 123.903 274.681 102.851 269.088C78.8788 262.722 86.4655 244.94 86.6584 244.206L90.3874 230.153C91.6458 226.387 87.5126 225.285 88.2565 222.483C88.4862 221.629 88.7158 218.047 101.253 221.372C111.173 224.008 112.688 226.36 112.064 228.738C110.897 233.12 107.545 227.866 105.267 235.205L102.291 246.401C100.371 253.639 101.878 258.993 108.325 260.702C117.942 263.255 119.623 255.172 119.807 254.502L123.83 239.356L123.839 239.365Z" fill="#FFCA03"/><path d="M169.85 235.179C170.778 235.501 173.304 236.502 174.369 236.098C175.839 235.547 174.985 233.104 174.608 232.102C174.057 230.633 173.037 228.125 172.055 226.94C170.3 224.782 167.508 226.839 166.305 223.661C164.881 219.896 170.952 217.802 173.423 216.865C176.013 215.882 182.323 213.172 183.857 217.232C185.125 220.585 181.533 220.529 181.561 223.616C181.598 226.022 182.975 229.678 183.82 231.91L189.579 247.156C190.581 249.802 193.979 257.737 190.029 259.225C188.854 259.666 187.586 259.345 186.411 258.913L162.061 249.471C160.95 249.021 158.884 248.176 157.644 248.644C155.816 249.333 157.203 253.182 157.671 254.422C158.296 256.066 159.177 258.224 160.105 259.629C162.411 263.065 165.001 260.474 166.084 263.359C167.572 267.299 161.639 269.944 158.874 270.991C156.165 272.011 149.965 273.949 148.523 270.119C147.347 266.996 151.223 266.941 150.397 262.954C149.855 260.263 148.569 256.516 147.568 253.861C145.97 249.618 144.344 245.319 142.094 241.324C138.925 235.795 135.554 239.689 134.222 236.153C132.642 231.974 140.679 229.209 143.334 228.208C146.989 226.83 147.724 226.821 151.26 228.18L169.841 235.161L169.85 235.179Z" fill="#FFCA03"/><path d="M195.421 229.943C184.464 222.319 182.792 208.193 190.627 196.932C200.546 182.668 216.914 185.929 223.582 190.567C234.696 198.292 235.201 213.217 227.862 223.761C220.275 234.664 206.425 237.603 195.421 229.943ZM196.67 204.666C194.659 207.559 196.652 211.096 199.178 212.85C203.568 215.908 218.071 221.392 221.956 215.817C224.152 212.666 222.342 209.415 219.559 207.477C214.856 204.207 200.877 198.622 196.67 204.666Z" fill="#FFCA03"/><path d="M216.647 176.975C214.37 176.497 213.01 181.163 207.398 179.996C203.274 179.133 200.804 175.533 201.667 171.409C202.595 166.972 207.141 164.906 211.329 165.778C218.539 167.285 226.668 176.056 225.796 180.244C225.575 181.292 224.436 183.046 223.141 182.779C221.846 182.504 220.514 177.792 216.638 176.984L216.647 176.975Z" fill="#FFCA03"/><path d="M216.181 149.535C216.364 148.387 216.502 147.376 216.474 146.936C216.438 146.311 216.217 145.815 215.942 145.264C215.721 144.713 215.501 144.153 215.464 143.592C215.299 140.699 220.92 137.484 223.492 137.337C225.191 137.246 226.532 138.614 226.624 140.249C226.826 143.831 221.976 146.127 222.132 148.892C222.197 150.022 223.207 151.096 224.401 151.032C228.424 150.802 228.387 136.933 238.132 136.382C244.038 136.042 248.447 141.526 248.824 148.065C248.897 149.324 248.814 151.161 248.649 152.74C248.548 154.32 248.438 155.716 248.465 156.093C248.493 156.534 248.576 156.91 248.658 157.342C248.741 157.719 248.824 158.086 248.851 158.527C248.925 159.785 248.768 160.428 247.813 161.365C246.142 163.037 242.651 164.809 240.263 164.947C238.628 165.039 237.278 164.552 237.177 162.724C237.021 159.96 243.101 157.094 242.899 153.576C242.826 152.318 242.128 151.161 240.75 151.243C237.039 151.455 237.306 163.799 226.936 164.387C220.654 164.745 216.401 159.822 216.034 153.347C215.96 152.088 216.08 150.756 216.199 149.553L216.181 149.535Z" fill="#FFCA03"/><path d="M50.8488 173.269C53.6502 172.838 56.9843 171.359 56.4516 167.933C56.0934 165.628 54.2656 166.169 52.4653 166.454L47.432 167.235C45.0072 167.611 43.804 167.676 44.1071 169.605C44.6857 173.334 47.432 173.802 50.858 173.269H50.8488Z" fill="#EFB600"/><path d="M38.0448 171.184C37.7417 169.255 36.6854 168.98 35.3628 169.117L35.1975 169.145C36.0792 170.697 36.9885 172.222 37.9438 173.728C38.1458 173.003 38.2009 172.167 38.0448 171.184Z" fill="#EFB600"/><path d="M47.5124 185.764C49.6616 187.721 52.8947 188.428 55.7604 187.987C60.5457 187.243 65.5056 183.477 63.7329 172.097C63.5124 170.664 63.1542 169.195 62.8695 167.771C62.5205 166.357 62.1714 164.951 61.9418 163.454C61.5836 161.158 61.354 158.834 61.1152 156.511C60.8213 154.205 60.5825 151.881 60.2242 149.576C59.9211 147.647 58.4056 145.277 56.0451 145.645C51.7558 146.315 56.881 150.99 47.4297 152.083L29.409 154.187C28.9498 154.242 28.5273 154.279 28.1139 154.315C30.1346 159.45 32.5043 164.4 35.1955 169.149L35.3608 169.121C36.6742 168.984 37.7397 169.259 38.0428 171.188C38.1989 172.171 38.1438 173.007 37.9417 173.732C40.3849 177.608 43.0485 181.337 45.9234 184.892C46.5755 184.892 46.998 185.342 47.5124 185.764Z" fill="#EFB600"/><path d="M44.1071 169.602C43.804 167.673 45.0072 167.618 47.432 167.232L52.4653 166.452C54.2656 166.167 56.0934 165.634 56.4516 167.93C56.9843 171.347 53.6502 172.826 50.8488 173.267C47.432 173.799 44.6766 173.34 44.0979 169.602H44.1071Z" fill="#2A354B"/><path d="M81.1828 205.02C79.8694 203.495 78.409 202.007 77.0496 200.529C75.5984 199.041 74.184 197.599 72.8613 196.074C72.0347 195.119 71.2723 194.035 70.5376 193.006C69.7201 191.968 68.9945 190.931 68.1311 189.929C66.487 188.028 62.9417 184.602 60.324 186.862C57.4307 189.36 63.2999 190.361 56.5765 196.414C60.2229 199.867 64.0898 203.073 68.1587 206.04L68.3056 205.92C69.8671 204.735 70.9141 203.743 72.4388 205.507C73.6512 206.912 73.7614 208.281 73.2655 209.557C77.3803 212.23 81.6604 214.646 86.1059 216.795C86.2253 212.653 84.0026 208.299 81.1736 205.02H81.1828Z" fill="#EFB600"/><path d="M101.472 221.307C97.7335 220.315 95.0883 219.938 93.2146 219.92C99.0378 222.262 105.091 224.145 111.336 225.532C109.959 224.172 107.038 222.785 101.463 221.307H101.472Z" fill="#EFB600"/><path d="M190.847 196.854C186.392 203.247 185.014 210.567 186.658 217.097C190.433 215.306 194.098 213.313 197.644 211.146C196.119 209.272 195.384 206.755 196.89 204.588C199.196 201.281 204.431 201.456 209.464 202.833C214.342 198.93 218.907 194.659 223.104 190.039C216.059 185.658 200.436 183.067 190.847 196.863V196.854Z" fill="#EFB600"/><path d="M211.568 165.677C207.38 164.805 202.834 166.871 201.906 171.308C201.043 175.432 203.504 179.032 207.637 179.896C213.24 181.062 214.599 176.396 216.886 176.874C220.772 177.682 222.094 182.394 223.389 182.669C224.684 182.936 225.823 181.181 226.044 180.134C226.916 175.946 218.788 167.174 211.578 165.668L211.568 165.677Z" fill="#EFB600"/><path d="M238.353 136.29C228.617 136.841 228.644 150.711 224.621 150.94C223.427 151.004 222.417 149.93 222.353 148.8C222.196 146.035 227.046 143.739 226.844 140.157C226.752 138.522 225.411 137.154 223.712 137.246C221.14 137.392 215.519 140.616 215.684 143.5C215.721 144.07 215.942 144.621 216.162 145.172C216.447 145.723 216.658 146.219 216.695 146.844C216.722 147.285 216.584 148.295 216.401 149.443C216.281 150.646 216.171 151.978 216.235 153.236C216.603 159.712 220.855 164.635 227.138 164.277C237.508 163.689 237.241 151.344 240.952 151.133C242.33 151.05 243.028 152.208 243.101 153.466C243.303 156.984 237.223 159.849 237.379 162.614C237.48 164.433 238.83 164.929 240.465 164.837C240.493 164.837 240.52 164.828 240.548 164.828C243.79 158.508 246.472 151.84 248.529 144.915C247.179 139.817 243.294 135.996 238.334 136.281L238.353 136.29Z" fill="#EFB600"/><path d="M202.161 286.839C203.584 285.746 204.466 284.147 204.466 282.338C204.466 279.693 202.85 277.553 200.204 276.754C199.24 276.45 198 276.322 196.163 276.322C194.776 276.322 193.83 276.395 193.114 276.542C191.323 276.919 190.092 277.764 189.302 278.793L188.769 278.324C187.888 277.543 187.033 277.02 186.152 276.717C185.352 276.441 184.416 276.313 183.194 276.313C181.697 276.313 180.705 276.359 179.952 276.469C179.162 276.588 178.464 276.781 177.858 277.029C176.93 276.414 175.874 276.074 174.735 276.074C174.211 276.074 173.679 276.157 173.063 276.331C172.788 276.414 172.512 276.506 172.236 276.607C172.135 276.643 172.025 276.689 171.924 276.717C171.722 276.735 171.493 276.533 171.245 276.57C170.703 276.643 170.142 276.487 169.463 276.487H162.675C162.354 276.487 162.087 276.698 161.858 276.68C161.499 276.653 161.196 276.754 160.948 276.754C160.498 276.754 160.094 276.855 159.69 276.946L159.58 277.002C159.58 277.002 159.515 277.038 159.479 277.047C159.47 277.047 159.46 277.047 159.451 277.047C158.147 276.551 156.512 276.322 154.298 276.322C152.553 276.322 151.093 276.469 149.835 276.772C149.467 276.864 149.109 276.983 148.76 277.13C147.575 276.634 146.005 276.313 143.938 276.313C142.597 276.313 141.265 276.441 139.988 276.698C138.73 276.946 137.738 277.341 136.939 277.801C136.223 277.488 135.442 277.314 134.634 277.314C134.376 277.314 134.119 277.332 133.88 277.36C132.19 276.616 130.409 276.23 128.59 276.23C126.615 276.23 124.686 276.634 122.84 277.442C121.903 277.847 121.031 278.343 120.223 278.894C118.468 276.689 116.503 276.193 115.097 276.193C114.409 276.193 113.821 276.111 113.38 276.285C112.581 276.294 111.837 276.506 111.148 276.506H105.839C105.637 276.506 105.38 276.607 105.077 276.561L104.994 276.653C104.709 276.57 104.397 276.542 104.103 276.478C103.809 276.405 103.258 276.276 102.569 276.276C101.715 276.276 100.631 276.478 99.5015 277.13C99.0239 276.937 98.5003 276.781 97.9125 276.662C96.746 276.432 95.5061 276.322 94.2202 276.322C92.8057 276.322 91.4004 276.46 90.0594 276.735C88.9205 276.956 88.0387 277.213 87.3131 277.553C86.7804 277.213 86.1742 276.937 85.5129 276.754C84.4658 276.469 83.1432 276.34 81.3614 276.34C79.0376 276.34 77.4486 276.551 76.1903 277.029C76.1627 277.038 76.1352 277.047 76.1076 277.057C76.08 277.047 76.0525 277.038 76.0341 277.029C74.8217 276.551 73.3338 276.331 71.3498 276.331C69.6966 276.331 68.3096 276.441 67.134 276.68C65.7103 276.956 64.5898 277.452 63.6988 278.186C62.3762 279.279 61.6506 280.841 61.6506 282.577C61.6506 284.184 62.3211 285.672 63.4876 286.747C63.5427 287.426 63.607 288.565 63.607 290.439C63.607 292.065 63.5519 293.075 63.4876 293.681C62.3762 294.774 61.7608 296.189 61.7608 297.713C61.7608 299.054 62.2201 300.304 63.1018 301.332C63.8642 302.232 64.8837 302.885 66.0502 303.206L66.1236 303.224C67.2626 303.518 68.7413 303.656 70.7896 303.656C73.1684 303.656 74.7942 303.472 76.0525 303.068C76.6771 302.866 77.2281 302.535 77.6966 302.223C79.0651 303.206 80.5071 303.133 81.0582 303.133H86.064C86.909 303.133 87.6622 303.087 88.3327 302.894C89.5175 303.316 91.0422 303.619 93.0078 303.619C94.9733 303.619 96.7919 303.454 98.3166 303.087C99.3361 302.839 100.172 302.453 100.842 301.975C101.357 302.333 101.954 302.646 102.652 302.884C104.204 303.417 106.197 303.665 108.925 303.665C111.267 303.665 112.994 303.436 114.363 302.949C116.236 302.278 117.55 301.029 118.165 299.449C119.341 300.671 120.737 301.654 122.335 302.37C124.365 303.289 126.45 303.748 128.535 303.748C130.62 303.748 132.604 303.289 134.487 302.389C134.68 302.297 134.799 302.251 134.854 302.232C135.203 302.159 135.598 302.067 136.002 301.929C136.581 302.379 137.251 302.738 138.023 302.995C139.391 303.445 140.999 303.656 142.918 303.656C145.058 303.656 146.767 303.399 148.135 302.875C148.236 302.839 148.337 302.802 148.429 302.756C148.503 302.793 148.585 302.829 148.668 302.857C149.982 303.399 151.616 303.647 153.812 303.647C156.135 303.647 157.835 303.353 159.148 302.866C160.094 303.188 160.93 303.123 161.334 303.123H172.53C173.017 303.123 173.44 303.27 173.89 303.362L174.257 303.463C174.569 303.518 175.001 303.619 175.515 303.619C176.755 303.619 177.692 303.234 178.326 302.829C179.548 303.371 180.999 303.647 182.772 303.647C187.401 303.647 189.467 301.948 190.386 300.267L191.837 301.571C192.563 302.223 193.077 302.627 193.573 302.912C194.436 303.408 195.437 303.674 196.466 303.674C198.533 303.674 201.059 302.499 201.977 299.201C202.317 298.007 202.372 296.62 202.363 294.627C202.363 293.966 202.198 293.378 202.179 292.864C202.17 292.515 202.014 292.212 202.014 291.955V287.647C202.014 287.335 202.161 287.068 202.17 286.848L202.161 286.839ZM85.1823 288.014C85.4762 287.968 85.7334 287.904 85.9905 287.831C86.0365 287.812 86.0824 287.794 86.1283 287.775C86.1375 288.134 86.1467 288.556 86.1467 289.052V289.126C85.6048 288.492 85.1823 288.014 85.1823 288.014Z" fill="#2A354B"/><path d="M86.7209 295.964C86.3902 295.817 86.1331 295.67 85.9677 295.532C85.8024 295.394 85.4993 295.073 85.0584 294.558L80.117 288.845C79.7955 288.469 79.5659 288.166 79.4465 287.945C79.3271 287.725 79.2719 287.504 79.2719 287.284C79.2719 286.88 79.5291 286.43 80.0527 285.934L81.4671 284.574C81.8345 284.225 82.1377 283.996 82.3673 283.895C82.5969 283.794 82.9459 283.739 83.4143 283.729C84.0848 283.729 84.5073 283.683 84.691 283.628C84.939 283.555 85.1411 283.399 85.3156 283.16C85.4809 282.921 85.5636 282.655 85.5636 282.37C85.5636 281.654 85.1595 281.194 84.3604 280.974C83.7083 280.799 82.7071 280.708 81.3477 280.708C79.6485 280.708 78.4453 280.845 77.7473 281.112C77.04 281.378 76.691 281.837 76.691 282.489C76.691 282.673 76.7461 282.875 76.8655 283.096C77.0308 283.408 77.1135 283.647 77.1135 283.812C77.1135 284.115 76.7829 284.666 76.1215 285.493C75.5521 286.2 75.1663 286.641 74.9826 286.815C74.7989 286.99 74.5969 287.082 74.3948 287.082C74.0641 287.082 73.8896 286.714 73.8896 285.97C73.8896 285.52 73.9447 285.061 74.0641 284.602C74.1835 284.143 74.3121 283.84 74.4499 283.72C74.8357 283.408 75.0745 283.187 75.1663 283.04C75.2582 282.893 75.3041 282.691 75.3041 282.425C75.3041 281.791 75.001 281.35 74.404 281.102C73.7335 280.836 72.7048 280.708 71.327 280.708C69.9493 280.708 68.8471 280.799 67.947 280.974C67.2673 281.102 66.7805 281.295 66.4682 281.553C66.156 281.81 66.009 282.15 66.009 282.572C66.009 283.077 66.257 283.463 66.7438 283.748C67.0469 283.922 67.2673 284.106 67.3867 284.29C67.5061 284.473 67.6072 284.776 67.6807 285.199C67.8644 286.228 67.9562 287.973 67.9562 290.443C67.9562 292.51 67.8643 294.044 67.6898 295.036C67.598 295.486 67.5061 295.807 67.4051 295.991C67.3041 296.184 67.1387 296.359 66.8999 296.515C66.3764 296.845 66.11 297.249 66.11 297.718C66.11 298.012 66.2111 298.269 66.404 298.508C66.606 298.737 66.8632 298.903 67.1755 298.985C67.9195 299.178 69.1135 299.279 70.7392 299.279C72.567 299.279 73.8713 299.151 74.6428 298.903C75.4143 298.655 75.8001 298.232 75.8001 297.654C75.8001 297.194 75.5613 296.818 75.0836 296.505C74.8632 296.359 74.7254 296.258 74.6612 296.212C74.3305 295.908 74.156 295.376 74.156 294.586C74.156 293.631 74.4132 293.144 74.9183 293.144C75.0837 293.144 75.2674 293.227 75.4694 293.392C75.6715 293.557 76.0113 293.897 76.5073 294.43C77.6371 295.651 78.5372 296.735 79.226 297.681C79.6577 298.269 79.97 298.407 80.1721 298.554C80.3741 298.701 80.6405 298.554 80.9803 298.554H85.9861C87.3179 298.554 87.9792 298.324 87.9792 297.387C87.9792 296.992 87.8782 296.79 87.6853 296.542C87.4832 296.294 87.1526 296.184 86.675 295.982L86.7209 295.964Z" fill="#FFFEA6"/><path d="M97.7751 283.628C98.2619 283.38 98.565 283.197 98.6753 283.068C98.7947 282.939 98.8498 282.747 98.8498 282.489C98.8498 281.718 98.2528 281.213 97.0587 280.974C96.1678 280.799 95.2218 280.708 94.2206 280.708C93.0909 280.708 91.9795 280.818 90.8773 281.038C89.9496 281.213 89.3067 281.415 88.9393 281.635C88.5719 281.856 88.3882 282.159 88.3882 282.535C88.3882 282.783 88.4525 282.985 88.5719 283.142C88.6913 283.298 88.9393 283.5 89.2975 283.739C89.7659 284.032 90.0599 284.354 90.1793 284.712C90.4089 285.346 90.5191 286.788 90.5191 289.038C90.5191 292.299 90.4364 294.421 90.2711 295.431C90.1884 295.89 89.9404 296.248 89.5088 296.515C88.9485 296.855 88.6637 297.231 88.6637 297.626C88.6637 298.719 90.0966 299.261 92.9714 299.261C94.6523 299.261 96.0759 299.123 97.2332 298.838C98.3079 298.572 98.8406 298.094 98.8406 297.387C98.8406 296.882 98.5467 296.506 97.968 296.239C97.6557 296.083 97.4261 295.936 97.2975 295.798C97.1689 295.66 97.0771 295.468 97.0128 295.21C96.8475 294.411 96.7648 292.326 96.7648 288.965C96.7648 286.972 96.8291 285.64 96.9577 284.951C97.0863 284.262 97.3526 283.821 97.7568 283.619L97.7751 283.628Z" fill="#FFFEA6"/><path d="M115.096 280.57C114.894 280.57 114.664 280.662 114.398 280.726C113.783 280.901 113.103 280.166 112.35 281.084H105.388C104.993 281.084 104.644 281.011 104.341 280.983C104.037 280.946 103.652 280.855 103.174 280.763C102.944 280.708 102.742 280.671 102.568 280.671C101.916 280.671 101.254 281.112 100.584 282.012C100.171 282.563 99.8399 283.169 99.592 283.821C99.344 284.473 99.2245 285.08 99.2245 285.622C99.2245 286.163 99.3807 286.632 99.6838 286.99C99.9869 287.348 100.382 287.523 100.859 287.523C101.282 287.523 101.714 287.348 102.164 287.008C102.54 286.715 103.027 286.127 103.615 285.227C103.936 284.731 104.276 284.483 104.616 284.483C104.901 284.483 105.103 284.648 105.222 284.988C105.342 285.328 105.406 285.888 105.406 286.678C105.406 287.808 105.378 289.139 105.314 290.673C105.25 292.207 105.186 293.318 105.112 294.007C105.029 294.779 104.928 295.302 104.8 295.578C104.671 295.854 104.442 296.037 104.111 296.129C103.569 296.294 103.257 296.405 103.174 296.441C102.862 296.643 102.696 296.928 102.696 297.286C102.696 297.957 103.137 298.444 104.028 298.738C105.084 299.096 106.701 299.279 108.887 299.279C110.669 299.279 111.982 299.123 112.846 298.82C113.709 298.517 114.132 298.04 114.132 297.406C114.132 297.093 114.049 296.836 113.874 296.662C113.7 296.478 113.378 296.294 112.901 296.083C112.46 295.899 111.808 295.633 111.652 295.293C111.496 294.953 111.064 294.402 111.064 293.64V286.246C111.064 285.622 111.486 285.172 111.624 284.896C111.762 284.62 112.175 284.483 112.497 284.483C112.736 284.483 113.029 284.565 113.195 284.731C113.36 284.896 113.636 285.254 113.93 285.796C114.26 286.393 114.628 286.825 114.967 287.082C115.307 287.339 115.73 287.468 116.189 287.468C116.685 287.468 117.108 287.339 117.466 287.073C117.934 286.724 118.164 286.163 118.164 285.392C118.164 284.271 117.833 283.188 117.153 282.131C116.474 281.075 115.785 280.552 115.078 280.552L115.096 280.57Z" fill="#FFFEA6"/><path d="M128.293 284.326C129.23 284.326 130.121 284.629 130.975 285.227C131.315 285.475 131.609 285.75 131.848 286.053C132.087 286.356 132.39 286.852 132.776 287.55C133.042 288.046 133.308 288.386 133.593 288.579C133.878 288.772 134.236 288.873 134.686 288.873C135.182 288.873 135.623 288.744 136.018 288.478C136.753 287.982 137.111 287.21 137.111 286.145C137.111 284.629 136.688 283.362 135.843 282.342C135.503 281.92 135.099 281.709 134.64 281.709C134.502 281.709 134.374 281.718 134.254 281.745C133.905 281.828 133.648 281.865 133.492 281.865C133.272 281.865 132.877 281.736 132.316 281.47C131.122 280.91 129.882 280.625 128.596 280.625C127.228 280.625 125.887 280.91 124.592 281.47C122.893 282.205 121.515 283.279 120.459 284.675C119.246 286.283 118.64 288.065 118.64 290.021C118.64 291.702 119.127 293.309 120.091 294.852C121.074 296.432 122.415 297.608 124.114 298.379C125.575 299.041 127.044 299.371 128.514 299.371C129.983 299.371 131.278 299.059 132.583 298.434C133.134 298.168 133.584 298.012 133.914 297.948C134.493 297.837 134.879 297.7 135.063 297.553C135.494 297.194 135.862 296.698 136.174 296.065C136.486 295.431 136.633 294.861 136.633 294.347C136.633 293.943 136.523 293.594 136.303 293.309C136.082 293.024 135.816 292.877 135.513 292.877C135.301 292.877 135.026 293.034 134.695 293.355C134.309 293.732 133.768 294.044 133.06 294.283C132.362 294.522 131.655 294.641 130.939 294.641C129.001 294.641 127.513 293.805 126.475 292.115C125.712 290.857 125.327 289.47 125.327 287.954C125.327 286.852 125.593 285.98 126.126 285.318C126.658 284.666 127.375 284.336 128.284 284.336L128.293 284.326Z" fill="#FFFEA6"/><path d="M157.289 284.988C157.353 284.593 157.436 284.317 157.537 284.179C157.638 284.042 157.867 283.886 158.207 283.72C158.749 283.454 159.025 283.059 159.025 282.535C159.025 281.911 158.639 281.452 157.867 281.158C157.096 280.864 155.902 280.717 154.285 280.717C152.907 280.717 151.75 280.827 150.841 281.047C150.4 281.148 150.042 281.35 149.775 281.644C149.5 281.938 149.362 282.269 149.362 282.627C149.362 282.884 149.426 283.086 149.546 283.243C149.665 283.399 149.922 283.582 150.308 283.803C150.611 283.968 150.822 284.28 150.933 284.74C151.043 285.199 151.089 286.007 151.089 287.165C151.089 287.55 150.979 287.798 150.758 287.89C150.538 287.991 149.977 288.037 149.068 288.037C148.076 288.037 147.442 288.037 147.176 288.01C146.91 287.991 146.708 287.936 146.579 287.853C146.349 287.716 146.239 287.33 146.239 286.714C146.239 285.667 146.285 284.969 146.377 284.629C146.469 284.29 146.689 284.005 147.029 283.794C147.424 283.555 147.69 283.344 147.837 283.151C147.984 282.958 148.049 282.71 148.049 282.398C148.049 281.259 146.68 280.698 143.934 280.698C142.878 280.698 141.849 280.799 140.848 281.001C139.121 281.341 138.258 281.957 138.258 282.848C138.258 283.215 138.45 283.491 138.836 283.683C139.415 283.977 139.773 284.244 139.911 284.483C140.049 284.721 140.113 285.227 140.104 285.98C140.104 286.283 140.122 287.486 140.159 289.599C140.159 290.021 140.168 290.388 140.168 290.692C140.168 292.354 140.104 293.704 139.966 294.733C139.911 295.192 139.837 295.514 139.736 295.706C139.635 295.899 139.461 296.055 139.213 296.184C138.735 296.432 138.432 296.634 138.285 296.79C138.147 296.946 138.074 297.176 138.074 297.461C138.074 297.745 138.184 298.021 138.414 298.26C138.634 298.499 138.946 298.692 139.341 298.82C140.26 299.123 141.436 299.27 142.878 299.27C144.457 299.27 145.679 299.105 146.533 298.783C147.387 298.462 147.81 297.984 147.81 297.369C147.81 296.882 147.626 296.533 147.259 296.322C146.901 296.101 146.671 295.918 146.57 295.78C146.285 295.339 146.147 294.623 146.147 293.612C146.147 292.997 146.175 292.473 146.23 292.051C146.276 291.711 146.386 291.5 146.561 291.426C146.992 291.252 147.994 291.16 149.573 291.16C150.262 291.16 150.685 291.224 150.85 291.362C151.015 291.491 151.098 291.84 151.098 292.391C151.098 293.465 151.015 294.375 150.859 295.109C150.767 295.486 150.685 295.752 150.593 295.89C150.501 296.028 150.326 296.175 150.069 296.313C149.546 296.597 149.289 296.983 149.289 297.488C149.289 298.076 149.628 298.517 150.308 298.793C151.052 299.105 152.209 299.252 153.78 299.252C155.562 299.252 156.857 299.096 157.656 298.793C158.455 298.489 158.85 298.003 158.85 297.332C158.85 296.956 158.685 296.671 158.345 296.487C157.876 296.221 157.601 296.046 157.509 295.964C157.417 295.872 157.344 295.697 157.27 295.44C157.142 294.953 157.068 293.824 157.068 292.032C157.068 291.013 157.096 289.635 157.151 287.899C157.206 286.163 157.243 285.19 157.279 284.969L157.289 284.988Z" fill="#FFFEA6"/><path d="M176.619 292.749C176.307 292.749 176.041 292.841 175.848 293.015C175.646 293.19 175.425 293.539 175.177 294.044C174.755 294.935 174.213 295.55 173.542 295.89C172.872 296.23 171.88 296.395 170.557 296.395C169.703 296.395 169.097 296.34 168.729 296.239C168.362 296.138 168.151 295.955 168.077 295.688C168.013 295.477 167.958 295.045 167.903 294.384C167.848 293.732 167.82 293.19 167.82 292.777C167.82 292.097 167.894 291.638 168.04 291.381C168.187 291.123 168.454 291.004 168.849 291.004C169.877 291.004 170.456 291.5 170.594 292.492C170.658 292.979 170.741 293.291 170.86 293.447C170.97 293.603 171.182 293.677 171.485 293.677C171.972 293.677 172.33 293.438 172.569 292.951C173 292.06 173.212 290.921 173.212 289.534C173.212 288.827 173.147 288.157 173.019 287.505C172.89 286.852 172.734 286.402 172.55 286.154C172.293 285.815 171.99 285.64 171.623 285.64C171.375 285.64 171.163 285.723 170.98 285.879C170.805 286.017 170.686 286.182 170.612 286.375C170.548 286.568 170.484 286.917 170.419 287.422C170.373 287.817 170.272 288.092 170.107 288.249C169.942 288.405 169.675 288.478 169.299 288.478C168.555 288.478 168.086 288.414 167.912 288.285C167.737 288.157 167.646 287.826 167.646 287.302C167.646 285.961 167.655 285.135 167.682 284.804C167.71 284.474 167.774 284.216 167.884 284.023C168.105 283.665 168.72 283.482 169.731 283.482C171.09 283.482 172.063 283.583 172.651 283.775C173.248 283.978 173.735 284.363 174.121 284.96C174.396 285.374 174.608 285.64 174.773 285.759C174.938 285.879 175.159 285.934 175.453 285.934C175.875 285.934 176.206 285.769 176.454 285.438C176.693 285.107 176.821 284.657 176.821 284.088C176.821 282.949 176.527 281.984 175.949 281.185C175.6 280.689 175.196 280.451 174.736 280.451C174.635 280.451 174.488 280.478 174.305 280.533C173.708 280.708 173.092 280.882 172.458 280.937C171.825 280.992 170.824 281.075 169.455 281.075H162.667C161.685 281.075 161.014 281.066 160.674 281.139C160.399 281.213 160.178 281.332 160.013 281.553C159.848 281.773 159.765 282.012 159.765 282.297C159.765 282.82 160.013 283.142 160.518 283.298C160.849 283.399 161.069 283.472 161.179 283.546C161.29 283.619 161.381 283.739 161.473 283.913C161.896 284.804 162.107 286.944 162.107 290.343C162.107 292.593 161.96 294.384 161.675 295.716C161.602 296.037 161.51 296.285 161.381 296.451C161.253 296.616 161.06 296.763 160.794 296.873C160.417 297.048 160.169 297.195 160.068 297.305C159.967 297.415 159.912 297.608 159.912 297.856C159.912 298.214 160.031 298.26 160.279 298.462C160.527 298.664 160.876 298.526 161.326 298.526H172.523C173.469 298.526 174.213 298.848 174.782 298.958C175.094 299.013 175.342 299.151 175.508 299.151C175.71 299.151 175.875 299.151 176.013 299.059C176.142 298.958 176.316 298.784 176.518 298.49C176.913 297.874 177.253 297.185 177.519 296.395C177.795 295.606 177.933 294.953 177.933 294.421C177.933 293.934 177.813 293.539 177.565 293.218C177.326 292.896 177.014 292.74 176.647 292.74L176.619 292.749Z" fill="#FFFEA6"/><path d="M198.947 280.946C198.433 280.79 197.514 280.708 196.192 280.708C195.163 280.708 194.437 280.753 194.024 280.836C193.014 281.047 192.508 281.525 192.508 282.26C192.508 282.563 192.582 282.802 192.72 282.995C192.857 283.187 193.105 283.362 193.445 283.527C193.868 283.729 194.143 284.032 194.281 284.437C194.419 284.841 194.483 285.594 194.483 286.705C194.483 287.679 194.254 288.175 193.794 288.175C193.519 288.175 193.078 287.908 192.462 287.367L185.886 281.608C185.445 281.222 185.069 280.974 184.747 280.864C184.426 280.753 183.911 280.698 183.213 280.698C181.983 280.698 181.119 280.735 180.623 280.799C179.172 281.02 178.446 281.553 178.446 282.398C178.446 282.664 178.52 282.884 178.676 283.068C178.832 283.252 179.108 283.445 179.503 283.638C179.842 283.803 180.09 283.977 180.237 284.161C180.384 284.345 180.513 284.629 180.605 285.006C180.871 286.044 181 287.697 181 289.966C181 292.097 180.926 293.732 180.779 294.861C180.687 295.486 180.439 295.927 180.026 296.166C179.594 296.423 179.319 296.625 179.19 296.772C179.071 296.919 179.007 297.148 179.007 297.442C179.007 298.012 179.337 298.453 179.989 298.765C180.642 299.077 181.569 299.233 182.754 299.233C185.39 299.233 186.704 298.618 186.704 297.396C186.704 296.928 186.41 296.551 185.822 296.258C185.399 296.046 185.124 295.716 184.986 295.266C184.848 294.816 184.784 293.98 184.784 292.758C184.784 291.27 185.05 290.526 185.592 290.526C185.95 290.526 186.41 290.774 186.952 291.261L194.777 298.269C195.236 298.682 195.567 298.949 195.76 299.059C195.953 299.169 196.192 299.233 196.467 299.233C197.092 299.233 197.523 298.811 197.762 297.957C197.955 297.268 197.753 296.157 197.744 294.604C197.735 293.456 197.431 292.556 197.431 291.895V287.587C197.431 285.97 197.863 284.868 198.102 284.29C198.175 284.115 198.405 283.977 198.506 283.895C198.598 283.803 198.855 283.702 199.122 283.592C199.783 283.298 200.15 282.866 200.15 282.297C200.15 281.608 199.783 281.139 198.975 280.9L198.947 280.946Z" fill="#FFFEA6"/><defs><linearGradient id="paint0_linear_332_7133" x1="139.626" y1="90.3231" x2="139.626" y2="49.1106" gradientUnits="userSpaceOnUse"><stop offset="0.61" stop-color="#FFDBBA"/><stop offset="0.7" stop-color="#FEEAD3"/><stop offset="0.8" stop-color="#FEF5E5"/><stop offset="0.9" stop-color="#FEFCF1"/><stop offset="1" stop-color="#FEFFF5"/></linearGradient><linearGradient id="paint1_linear_332_7133" x1="138.013" y1="109.074" x2="138.013" y2="96.0503" gradientUnits="userSpaceOnUse"><stop stop-color="#F6A1A7"/><stop offset="0.2" stop-color="#F6A1A7"/><stop offset="0.66" stop-color="#CE5B5E"/><stop offset="0.81" stop-color="#CE5B5E"/><stop offset="0.82" stop-color="#CE5B5E"/><stop offset="0.84" stop-color="#CE5B5E"/><stop offset="0.89" stop-color="#CE5B5E"/><stop offset="0.98" stop-color="#CE5B5E"/></linearGradient><linearGradient id="paint2_linear_332_7133" x1="80.6625" y1="72.5002" x2="194.555" y2="146.87" gradientUnits="userSpaceOnUse"><stop stop-color="#FEFFF5"/><stop offset="0.1" stop-color="#FEFCF1"/><stop offset="0.2" stop-color="#FEF5E5"/><stop offset="0.3" stop-color="#FEEAD3"/><stop offset="0.39" stop-color="#FFDBBA"/></linearGradient><linearGradient id="paint3_linear_332_7133" x1="68.6533" y1="90.8746" x2="182.555" y2="165.245" gradientUnits="userSpaceOnUse"><stop offset="0.61" stop-color="#FFDBBA"/><stop offset="0.7" stop-color="#FEEAD3"/><stop offset="0.8" stop-color="#FEF5E5"/><stop offset="0.9" stop-color="#FEFCF1"/><stop offset="1" stop-color="#FEFFF5"/></linearGradient></defs></svg>